<?xml version="1.0" encoding="utf-8"?>
<!-- Generator: Adobe Illustrator 16.0.0, SVG Export Plug-In . SVG Version: 6.00 Build 0)  -->
<!DOCTYPE svg PUBLIC "-//W3C//DTD SVG 1.1//EN" "http://www.w3.org/Graphics/SVG/1.1/DTD/svg11.dtd">
<svg version="1.1" id="Layer_1" xmlns="http://www.w3.org/2000/svg" xmlns:xlink="http://www.w3.org/1999/xlink" x="0px" y="0px"
	 width="341.012px" height="298.5px" viewBox="431.5 50 341.012 298.5" enable-background="new 431.5 50 341.012 298.5"
	 xml:space="preserve">
<g>
	<path d="M561.843,341.699c-9.833-4.225-16.702-13.598-18.324-24.586c-14.608-4.068-27.507-9.299-40.507-15.6v10.411
		c0,13.179-6.82,24.896-18.168,29.773l-6.832,2.929V348h91v-3.373L561.843,341.699z M516.152,259.445
		c-0.004-0.006-0.004-0.006-0.011-0.018c-0.096-0.08-0.192-0.166-0.278-0.251c0.107,0.112,0.226,0.226,0.338,0.331
		c0.004,0.006,0.004,0.006,0.011,0.012c0.059,0.054,0.118,0.103,0.177,0.145C516.313,259.59,516.232,259.521,516.152,259.445z
		 M508.32,250.236c-1.729-2.316-3.238-4.543-4.57-6.695C505.076,245.693,506.587,247.92,508.32,250.236z M503.627,243.343
		c0.011,0.027,0.027,0.05,0.042,0.075c0.026,0.043,0.048,0.08,0.081,0.123c-0.027-0.043-0.049-0.08-0.075-0.123
		C503.658,243.393,503.643,243.37,503.627,243.343z M649.721,249.842c-0.337-0.021-0.669-0.031-1.007-0.037
		c0.295,0.016,0.589,0.043,1.028,0.063L649.721,249.842z M651.086,321.08c-0.006-0.006-0.006-0.012-0.012-0.021l-0.486-1.221
		c-0.307-0.766-0.707-1.563-1.188-2.361c-0.119-0.182-0.236-0.379-0.365-0.578c-0.053-0.086-0.106,0.047-0.166-0.032L636.675,300
		h-0.103l12.205,16.887c0.215,0.283,0.412,0.484,0.584,0.795c0.021,0.032,0.043,0.017,0.063,0.055
		c0.166,0.262,0.315,0.513,0.455,0.785c0.081,0.129,0.146,0.248,0.198,0.377c0.203,0.381,0.379,0.771,0.52,1.16
		c0.016,0.037,0.025,0.065,0.043,0.104c0.354,0.884,0.626,1.781,0.818,2.691c0.021,0.129,0.043,0.246,0.063,0.369
		c0.048,0.188,0.605,0.379,0.632,0.576c0.006,0.049,0.031,0.092,0.069,0.141L651.086,321.08z M652.648,324.318l-0.005-0.006
		c0,0,0,0-0.006-0.006c-0.128-0.123-0.306-0.24-0.412-0.363l0.349,0.855c0.086-0.064,0.172-0.128,0.197-0.191
		c0.006-0.018,0.012-0.032,0.012-0.049c0,0,0,0,0-0.012C652.783,324.475,652.729,324.398,652.648,324.318z M652.97,325.796
		l-0.017-0.043l-0.379-0.953c-0.141,0.097-0.289,0.198-0.289,0.296c0.025,0.213-0.231,0.411-0.221,0.614
		c0.01,0.123-0.097,0.229-0.111,0.349c-0.006,0.01-0.006,0.021-0.006,0.031l1.166-0.107L652.97,325.796z M629.012,52v3.186
		l1.029,0.498c6.916,2.704,10.418,10.069,9.459,17.103c9.352,0.546,18.744,1.648,28.027,3.292l1.682-1.847
		c5.443-5.861,12.359-10.261,19.174-13.189l14.629-5.857V52H629.012z"/>
	<path d="M743.012,344.141V348h-108v-3.859l7.579-2.929c6.012-2.585,9.448-8.8,9.366-15.122l0.05-0.031
		c-0.007,0.01-0.032,0.021-0.032,0.031l1.153-0.107l-0.151-0.187l-0.02-0.043l0.111-0.168L652.97,325h0.08l-0.163-0.521
		c0.006-0.018,0.125,0.098,0.125,0.082c0,0,0,0,0-0.013c0-0.073-0.168-0.149-0.248-0.229l-0.063-0.006c0,0-0.029,0-0.035-0.004
		c-0.049-0.103-0.773-1.586-1.565-3.229c-0.006-0.006-0.014-0.012-0.021-0.021c-0.144-0.295-0.297-0.6-0.436-0.899
		c-0.449-0.915-0.886-1.81-1.218-2.478c-0.16-0.322-0.295-0.59-0.392-0.783c-0.086-0.176-0.146-0.071-0.168-0.098L636.675,300
		h-0.103l12.205,16.887l-12.07-16.972L561,194.343l-16.988,18.986v67.341c-3-1.627-6.104-3.346-8.833-5.141
		c-0.401-0.245-0.788-0.508-1.173-0.78c-1.59-1.092-3.143-2.216-4.652-3.367c-4.336-3.366-12.949-11.706-12.97-11.718
		c-0.048-0.048-0.11-0.096-0.158-0.145c-0.005-0.006-0.012-0.006-0.019-0.012c-0.004-0.01-0.024-0.031-0.051-0.063
		c-0.006-0.006-0.008-0.006-0.014-0.018c-0.941-1.188-10.824-13.479-12.393-15.888c-0.027-0.043-0.049-0.08-0.075-0.123
		c-0.017-0.026-0.033-0.048-0.05-0.075c-0.016-0.021-0.031-0.048-0.043-0.068c-0.026-0.049-0.264-0.097-0.285-0.15
		c-0.043-0.096-0.286-0.191-0.286-0.289V87.892c0.001-13.174-6.819-24.892-18.167-29.779l-6.832-2.927V52h91v3.186l-6.945,2.928
		c-9.63,4.138-16.1,13.211-17.92,23.907c0,0.026,0.037,0.048,0.037,0.075c-0.311,1.884-0.172,3.828-0.172,5.797v94.684
		l75.273-82.859c1.68-0.038,3.365-0.048,4.646-0.048c7.179,0,14.351,0.321,21.144,0.937l-57.688,62.454l54.705,76.976l7.638,9.807
		c-0.337-0.021-0.673-0.031-1.011-0.037c0.295,0.017,0.588,0.043,1.026,0.063l-0.021-0.026c0.191,0.006,0.385,0.016,0.577,0.026
		l28.178,39.302l0.038,0.018l19.12,26.599l0.011,0.635l0.172,0.58h0.155l0.792,0.679c5.898,8.301,13.928,14.451,22.985,18.354
		L743.012,344.141z"/>
	<path d="M693.123,312.841c0.353,0.996,0.994,1.757,1.899,2.243L693.123,312.841z"/>
	<path d="M503.675,243.418c0.026,0.043,0.048,0.08,0.075,0.123c-0.032-0.043-0.053-0.08-0.081-0.123
		c-0.017-0.025-0.032-0.048-0.042-0.075C503.643,243.37,503.658,243.393,503.675,243.418z"/>
	<path d="M508.32,250.236"/>
	<path d="M649.742,249.868c-0.439-0.021-0.733-0.048-1.028-0.063c0.338,0.006,0.67,0.016,1.007,0.037L649.742,249.868z"/>
	<path d="M648.238,249.788c0.067,0.002,0.133,0.005,0.195,0.008C648.367,249.793,648.304,249.79,648.238,249.788z"/>
	<path d="M652.783,324.548c0,0.013,0,0.013,0,0.013c0,0.016-0.006,0.03-0.012,0.047l-0.123-0.289
		C652.729,324.398,652.783,324.475,652.783,324.548z"/>
	<path d="M653.115,325.982l-1.168,0.106c0-0.011,0-0.021,0.006-0.032l1.002-0.305l0.016,0.043L653.115,325.982z"/>
	<path stroke="#000000" stroke-miterlimit="10" d="M651.512,241.261v3.233c20,0,36,10.947,36,24.73v24.489l12.479,17.167
		c13.421-4.459,25.521-10.122,37.521-16.932v-24.323c0-13.778,15-24.726,35-24.726v-3.239L651.512,241.261z M699.771,311
		l-0.049-0.055l-0.043-0.063c-0.063,0.021-0.123,0.043-0.188,0.063C699.439,310.962,699.707,310.982,699.771,311z M735.582,128.382
		c-0.386,0.284-0.749,0.626-1.081,1.033c0.541,0.46,1.027,0.888,1.456,1.279C735.824,129.935,735.706,129.164,735.582,128.382z"/>
	<path stroke="#000000" stroke-miterlimit="10" d="M764.065,170.66c-0.187-0.059-0.362-0.128-0.642-0.225
		c1.193-1.611,2.141-3.276,0.808-5.005c-1.401-1.814-3.44-1.67-5.637-1.162c-0.22-0.712-0.471-1.402-0.647-2.114
		c-2.022-7.66-4.004-15.342-6.06-22.991c-0.294-1.14-0.219-1.745,0.996-2.516c4.138-2.612,4.067-8.538-0.021-10.722
		c-0.418-0.225-0.835-0.45-1.653-0.744c0.32-0.428,0.737-0.808,0.946-1.274c1.124-2.393,0.862-4.636-0.68-6.558
		c-0.819-1.006-1.788-1.67-2.912-1.964c-0.974-0.273-2.065-0.273-3.244,0c-0.239,0.059-0.454,0.107-0.642,0.15
		c-0.407,0.085-0.68,0.134-0.889,0.107c-0.467-0.048-0.559-0.46-0.755-1.542c0.508-0.508,1.017-0.985,1.515-1.456
		c0.862-0.819,1.696-1.611,2.446-2.479c0.884-1.012,0.717-1.494-0.521-1.793c-1.375-0.332-2.821-0.46-4.245-0.685
		c0.675-0.701,1.437-1.402,2.083-2.195c1.402-1.67,1.236-2.168-0.835-2.575c-1.103-0.225-2.237-0.284-3.421-0.428
		c0.798-0.851,1.654-1.67,2.397-2.575c1.087-1.349,0.938-1.81-0.686-2.227c-0.589-0.155-1.183-0.251-1.788-0.321
		c-0.594-0.07-1.188-0.091-1.818-0.14c0.946-1.022,1.911-1.932,2.734-2.965c0.895-1.124,0.749-1.627-0.609-1.948
		c-1.231-0.306-2.521-0.413-3.758-0.616c0.871-0.926,1.829-1.836,2.648-2.87c0.91-1.14,0.771-1.638-0.563-1.943
		c-1.316-0.321-2.683-0.439-4.016-0.642c0.781-0.83,1.688-1.681,2.458-2.655c0.472-0.594,0.686-1.006,0.62-1.317
		c-1.91,1.113-3.795,2.136-5.657,3.073c-1.425,0.723-2.838,1.386-4.256,2.029l-6.873,9.983c-3.361-1.542-6.794-2.998-10.289-4.363
		c-13.065-5.15-27.049-9.143-41.534-11.835c-11.609-2.157-23.553-3.501-35.619-3.913c-2.799-0.107-5.619-0.155-8.436-0.155
		c-28.248,0-53.859,3.297-76.508,9.288c-0.032,0.508,0.003,1.006,0.003,1.515v23.446c18-9.486,42.537-15.331,68.935-16.273
		c2.516-0.091,5.031-0.14,7.602-0.14c10.711,0,20.583,0.702,29.679,1.933c24.354,3.26,43.024,10.198,56.54,17.162
		c-0.894,2.821-0.847,5.824-0.472,8.87c0.145,1.113,0.32,2.205,0.485,3.308c0.296,1.98-0.569,3.651-1.859,5.16
		c-0.583,0.701-1.259,1.328-1.896,1.992c1.45,0.626,2.113,0.498,4.747-0.91c0.529,1.847,0.188,2.976-1.291,4.304
		c2.039,0.439,2.606,0.139,5.572-2.896c0.771,0.653,0.771,0.653,0.878,3.287c3.12-1.9,3.607-4.694,0.904-6.702
		c-1.429-1.065-1.862-2.313-1.729-3.924c0.154-1.97,0.417-3.929,0.718-5.883c0.086-0.616,0.449-1.199,0.781-2.04
		c0.229,0.46,0.386,0.674,0.467,0.91c3.997,11.611,7.97,23.248,12.017,34.859c2.458,7.093,5.006,14.148,7.585,21.192
		c0.675,1.836,2.142,2.987,4.117,3.399c1.718,0.369,2.574-0.413,2.236-2.109c-0.268-1.279-0.685-2.526-1.146-3.736
		c-0.321-0.83-0.434-1.552,0.139-2.372c0.59-0.819,0.387-1.365-0.583-1.552c-0.396-0.08-0.803-0.177-1.146-0.353
		c-0.749-0.38-0.455-0.964-0.155-1.542c0.938-1.841,0.938-1.841-0.963-2.409c-0.338-0.096-0.67-0.225-1.178-0.407
		c0.353-0.696,0.631-1.359,0.995-1.991c0.46-0.803,0.315-1.28-0.595-1.483c-0.664-0.15-1.29-0.38-2.142-0.626
		c0.407-0.808,0.749-1.531,1.146-2.243c0.444-0.782,0.221-1.199-0.583-1.397c-0.584-0.145-1.146-0.321-1.891-0.536
		c0.37-0.723,0.675-1.386,1.028-2.013c0.396-0.717,0.257-1.156-0.521-1.354c-0.722-0.204-1.435-0.439-2.611-0.798
		c0.563-0.792,1.038-1.424,1.467-2.087c0.477-0.734,0.311-1.221-0.551-1.408c-0.312-0.069-0.605-0.188-0.928-0.262
		c-0.989-0.214-1.177-0.808-0.737-1.697c0.134-0.257,0.268-0.52,0.406-0.771c0.424-0.723,0.343-1.183-0.504-1.456
		c-0.385-0.134-0.86-0.514-0.926-0.867c-0.696-3.592-0.975-7.2,0.23-10.877c0.418-1.268,1.001-2.344,1.718-3.185
		c0.332-0.407,0.696-0.75,1.081-1.033c0.124,0.781,0.24,1.552,0.375,2.313c0.197,1.317,0.406,2.606,0.664,3.902
		c0.354,1.874,0.846,3.72,1.221,5.583c0.069,0.321-0.021,0.75-0.198,1.044c-0.498,0.905-1.092,1.756-1.622,2.634
		c-0.357,0.615-0.117,0.985,0.498,1.172c0.729,0.214,1.445,0.455,2.414,0.771c-0.438,0.75-0.813,1.424-1.221,2.077
		c-0.497,0.781-0.375,1.279,0.523,1.504c0.739,0.193,1.445,0.439,2.495,0.771c-0.455,0.664-0.825,1.226-1.192,1.767
		c-0.605,0.916-0.473,1.509,0.631,1.745c0.573,0.134,1.124,0.342,1.729,0.524c-0.086,0.268-0.118,0.423-0.197,0.567
		c-1.104,2.323-1.104,2.323,1.29,3.132c0.257,0.08,0.508,0.203,1.05,0.428c-0.466,0.723-0.916,1.36-1.313,2.04
		c-0.374,0.637-0.219,1.076,0.487,1.28c0.723,0.214,1.43,0.46,2.446,0.792c-0.455,0.701-0.852,1.285-1.227,1.874
		c-0.477,0.76-0.252,1.21,0.563,1.424c0.695,0.177,1.358,0.417,2.163,0.653c-0.387,0.846-0.719,1.579-1.071,2.313
		c-0.32,0.701-0.128,1.209,0.611,1.188c2.542-0.075,3.678,1.424,4.581,3.447c1.922,4.282,5.449,5.979,10.268,5.374
		c0.112-0.011,0.229,0.048,0.354,0.07c0.541-0.198,1.093-0.401,1.645-0.594c0.572-0.471,1.199-0.899,1.729-1.435
		C767.54,174.456,766.978,171.656,764.065,170.66z M741.979,123.222c-0.364-1.188-0.177-2.489,0.396-3.607
		c0.139-0.284,0.311-0.541,0.508-0.792c0.52-0.69,1.21-1.247,2.029-1.552c0.405-0.145,0.813-0.236,1.235-0.263
		c0.767-0.069,1.542,0.059,2.237,0.359c1.146,0.46,2.071,1.349,2.446,2.51c0.718,2.254-0.738,5.091-3.035,5.894
		C745.362,126.626,742.665,125.449,741.979,123.222z M750.957,135.791c-2.372,0.878-5.15-0.332-5.836-2.537
		c-0.718-2.323,0.647-5.123,2.906-5.963c2.398-0.878,5.22,0.354,5.938,2.596C754.683,132.14,753.258,134.939,750.957,135.791z
		 M757.391,169.033c-0.327-0.754,0.563-1.809,1.954-2.323c1.215-0.439,2.757-0.188,2.811,0.535c0.08,1.162-0.895,1.681-1.771,2.146
		C759.28,169.959,757.701,169.734,757.391,169.033z M762.059,175.986c-1.193,0.471-2.602,0.257-2.88-0.417
		c-0.295-0.76,0.61-1.852,1.964-2.345c1.178-0.444,2.624-0.145,2.832,0.568C764.162,174.434,763.193,175.531,762.059,175.986z"/>
	<path stroke="#000000" stroke-miterlimit="10" d="M643.234,321.785c-7.125,0.615-14.324,0.938-21.558,0.938
		c-28.25,0-53.942-3.298-76.591-9.287c-18.691-4.91-35.396-11.656-49.73-19.889c-39.377-22.533-61.852-56.167-61.852-93.642
		c0-37.476,23.008-71.098,61.008-93.643v51.103c-6,12.998-10.175,27.396-10.175,42.54c0,15.144,4.086,29.54,11.044,42.551
		c3.484,6.522,7.826,12.69,12.877,18.431c0.916,1.043,1.879,2.075,2.85,3.096c9.196,9.631,20.633,17.942,33.987,24.502
		c21.116,10.389,47.046,16.414,76.599,16.414c3.209,0,6.408-0.071,9.606-0.227l10.786,15.014
		C642.55,320.35,642.938,321.05,643.234,321.785z"/>
	<path d="M746.864,133.343c-0.398-1.22,0.196-2.439,1.391-2.86c1.276-0.45,2.587,0.081,2.979,1.207
		c0.402,1.157-0.272,2.481-1.513,2.967C748.451,135.153,747.283,134.619,746.864,133.343z"/>
	<path d="M743.27,123.233c-0.39-1.222,0.209-2.393,1.437-2.816c1.31-0.453,2.562,0.07,2.945,1.23c0.378,1.14-0.321,2.479-1.548,2.96
		C744.877,125.092,743.676,124.507,743.27,123.233z"/>
</g>
</svg>
