<?xml version="1.0" encoding="UTF-8" standalone="no"?>
<!-- Created with Inkscape (http://www.inkscape.org/) -->

<svg
   version="1.1"
   id="svg34231"
   xml:space="preserve"
   width="2800"
   height="2800"
   viewBox="0 0 2800 2800"
   xmlns="http://www.w3.org/2000/svg"
   xmlns:svg="http://www.w3.org/2000/svg"><defs
     id="defs34235" /><g
     id="g34237"
     transform="matrix(1.3333333,0,0,-1.3333333,0,2800)"><path
       d="M 882.39226,1337.1534 V 745.77336 h 107.82999 v 215.79 h 111.85005 108.78 c -5.43,-92.24 -46.18,-175.04 -108.78,-235.16 v -134.05 c 123.9,78.19 207.88,213.66 214.96,369.21 0.36,7.09 0.48,14.17 0.48,21.26 0,29.53004 -2.84,58.46004 -8.15,86.58004 -24.22,127.67 -101.11,236.81 -207.29,303.77 v -133.93 c 47.48,-45.48 82.33,-104.06 98.74,-169.84 h -98.74 -111.85005 v 242.59 112.44 c -34.37,10.4 -70.51,16.89 -107.82999,19.02 z m 77.82999,-561.38004 h -47.83 v 634.84004 c 16.06,-2.12 32.12,-5.19 47.83,-9.09 v -362.12 h 278.98005 l -9.33,37.2 c -16.54,66.14 -50.32,126.5 -97.8,175.16 v 62.6 c 76.3,-63.55 129.1,-151.9 147.88,-250.63 5.07,-26.7 7.56,-53.75 7.56,-80.91004 0,-6.61 -0.12,-13.23 -0.48,-19.84 -5.55,-122.25 -62.48,-234.81 -154.96,-311.81 v 62.71 c 64.61,66.26 103.23,153.19 108.66,245.91 l 1.89,31.77 H 960.22225 Z m -47.83,-220.74 v 46.53 c 16.18,2.36 32.12,5.79 47.83,10.16 v -47.72 c -15.71,-3.9 -31.77,-6.85 -47.83,-8.97 z m 77.83,98.62 c -33.66,-13.7 -69.92,-22.44 -107.82999,-25.16 v -106.3 c 37.31999,2.01 73.45999,8.62 107.82999,19.02 v 112.44"
       style="fill:#000000;fill-opacity:1;fill-rule:evenodd;stroke:none;stroke-width:0.1"
       id="path34243" /><path
       d="m 832.07226,961.56336 v -215.79 h -107.832 v 215.79 h -220.512 -106.299 c -0.237,7.09 -0.472,14.17 -0.472,21.26 0,29.53004 2.834,58.46004 8.149,86.58004 32.126,169.25 156.732,305.78 319.134,355.03 34.488,10.4 70.512,16.89 107.832,19.02 v -106.3 -267.75 z m -107.832,-420.35 v 112.44 c 33.661,-13.7 69.921,-22.44 107.832,-25.16 v -106.3 c -37.32,2.01 -73.344,8.62 -107.832,19.02 z m 30,815.43004 v -317.24 h -278.976 l 9.33,37.2 c 29.764,118.94 115.039,216.97 228.307,263.15 z m 47.835,-580.87004 v 634.84004 c -23.386,-3.07 -46.536,-8.03 -69.095,-14.88 -152.953,-46.41 -268.582,-174.8 -298.464,-332 -4.489,-23.75 -6.969,-47.96 -7.441,-72.17004 h 327.165 v -215.79 z m 0,-174.21 c -16.181,2.36 -32.126,5.79 -47.835,10.16 v -47.72 c 15.826,-3.9 31.772,-6.85 47.835,-8.97 z m -288.426,467.84004 h 210.591 v 242.59 c -103.701,-42.28 -182.953,-132.28 -210.591,-242.59 v 0"
       style="fill:#000000;fill-opacity:1;fill-rule:evenodd;stroke:none;stroke-width:0.1"
       id="path34245" /></g></svg>
