<?xml version="1.0" encoding="UTF-8" standalone="no"?>
<!-- Created with Inkscape (http://www.inkscape.org/) -->

<svg
   width="200"
   height="200"
   viewBox="0 0 52.916666 52.916668"
   version="1.1"
   id="svg34480"
   sodipodi:docname="phlogohelp.svg"
   inkscape:version="1.1.1 (3bf5ae0d25, 2021-09-20)"
   xmlns:inkscape="http://www.inkscape.org/namespaces/inkscape"
   xmlns:sodipodi="http://sodipodi.sourceforge.net/DTD/sodipodi-0.dtd"
   xmlns="http://www.w3.org/2000/svg"
   xmlns:svg="http://www.w3.org/2000/svg">
  <sodipodi:namedview
     id="namedview1082"
     pagecolor="#505050"
     bordercolor="#eeeeee"
     borderopacity="1"
     inkscape:pageshadow="0"
     inkscape:pageopacity="0"
     inkscape:pagecheckerboard="0"
     inkscape:document-units="px"
     showgrid="false"
     units="px"
     inkscape:zoom="1.2861282"
     inkscape:cx="19.049424"
     inkscape:cy="1.1662912"
     inkscape:window-width="1280"
     inkscape:window-height="961"
     inkscape:window-x="-8"
     inkscape:window-y="-8"
     inkscape:window-maximized="1"
     inkscape:current-layer="svg34480" />
  <defs
     id="defs34477" />
  <g
     id="g2765">
    <path
       d="m 20.148124,42.636899 c -2.766943,-0.820161 -4.676978,-2.849169 -6.55761,-4.666759 3.8e-5,-8.32e-4 3.8e-5,-8.32e-4 -0.0012,-8.87e-4 3.8e-5,-8.32e-4 -0.0011,-0.0026 -0.0035,-0.0034 -0.126112,-0.137329 -2.977152,-3.182228 -7.6611067,-5.139336 1.895189,-0.116351 4.1605527,-0.04606 6.4762917,0.500208 5.503014,1.298514 6.670263,4.125748 10.397061,5.919887 0.40858,0.195937 0.741151,0.246321 1.193553,0.302689 1.172609,0.146479 1.85091,0.469316 2.226141,0.733096 0.08114,0.05763 0.149094,0.111586 0.203907,0.161025 0.01398,0.013 0.02678,0.02513 0.03959,0.03726 0.01167,0.01041 0.02212,0.0208 0.03258,0.03118 0.0941,0.09346 0.134941,0.15699 0.141798,0.16645 0.372357,0.437251 -0.173883,0.417787 -1.018069,0.387629 l -0.0012,-2.6e-5 c -0.09445,-0.0038 -0.192584,-0.0067 -0.29556,-0.0098 -0.04121,-8.88e-4 -0.08237,-0.0026 -0.124791,-0.0035 -0.271434,-0.0067 -0.560137,-0.0071 -0.849518,0.0078 -0.02673,0.0011 -0.05226,0.0023 -0.079,0.0034 0,0 0,0 -0.0012,-2.7e-5 -0.593003,0.02269 -1.142623,-0.02986 -1.759597,-0.149896 -0.0036,-9.43e-4 -0.0072,-0.0019 -0.01201,-0.0028 -0.02166,-0.0039 -0.04454,-0.0077 -0.06738,-0.01246 -0.380069,-0.07342 -0.756811,-0.167089 -1.118557,-0.270589 -0.0077,0.0091 1.126462,0.692319 3.60382,0.687634 0.04246,8.1e-5 0.353725,-0.01603 0.393719,-0.01516 0.100553,0.003 0.198643,0.0068 0.293136,0.0097 0.0024,5.2e-5 0.0049,1.04e-4 0.0073,1.57e-4 0.66857,0.02381 1.111872,0.03935 1.358035,-0.149161 0.110491,-0.08395 0.159205,-0.197169 0.134331,-0.319605 -0.01684,-0.08501 -0.06731,-0.177531 -0.156067,-0.281883 l 3.8e-5,-8.32e-4 c -0.01947,-0.02582 -0.06975,-0.09547 -0.161497,-0.187193 -0.01159,-0.0121 -0.02439,-0.02423 -0.03955,-0.03811 l -0.0035,-0.0034 c -0.01284,-0.01128 -0.02443,-0.02338 -0.03963,-0.03641 -0.06997,-0.06331 -0.148491,-0.125117 -0.232015,-0.183644 -0.163524,-0.114438 -1.081271,-0.808156 -2.663162,-1.080327 -0.733168,-0.125945 -1.070196,-0.430376 -1.557094,-0.774457 0.861622,-0.08967 1.649446,-0.401032 2.302833,-0.826197 0.537173,-0.348961 0.875602,-0.81143 1.348951,-1.198175 0.167363,-0.135196 0.53029,-0.466773 0.811871,-0.469979 0.441858,-0.0065 0.487936,0.402512 0.396071,0.612992 -0.404286,0.933389 -1.934504,2.252068 -2.166425,2.44766 0.924281,-0.760431 2.003025,-1.448099 2.935752,-2.2075 0.293302,-0.239125 1.528289,-1.002976 1.485952,-0.2158 -0.02005,0.368639 -0.939307,1.261233 -1.400838,1.655006 -0.491748,0.418512 -1.029667,0.811475 -1.581679,1.193974 0.464389,-0.321758 1.142174,-0.559317 1.659442,-0.842683 0.732319,-0.399751 1.401341,-0.849126 2.073884,-1.295884 0.216255,-0.143448 0.613592,-0.53946 0.954564,-0.514289 0.345821,0.02528 0.405153,0.272895 0.295975,0.46353 -0.431296,0.749959 -1.206863,1.467057 -2.016246,2.044596 -0.550039,0.392699 -1.277634,0.904291 -1.930821,1.21603 0.958322,-0.326284 3.105305,-1.60196 3.437087,-1.833479 0.659778,-0.459733 1.705225,-1.325888 2.371645,-1.117588 0.707096,0.221034 -0.613165,1.347031 -1.010735,1.721029 -4.544865,4.262617 -8.663092,4.556775 -12.065812,3.548446"
       style="fill:#000080;fill-opacity:1;fill-rule:nonzero;stroke:none;stroke-width:0.0101287"
       id="path1704" />
    <path
       d="m 32.812889,27.094143 c 2.766937,0.820331 4.678179,2.849449 6.557603,4.666929 -3.8e-5,8.31e-4 0.0012,8.87e-4 0.0012,0.0012 0.0012,8.87e-4 0.0024,0.002 0.0035,0.0034 0.126134,0.136821 2.977159,3.182059 7.661114,5.139167 -1.893978,0.116377 -4.160554,0.04606 -6.476292,-0.500207 -5.502975,-1.299361 -6.670261,-4.125749 -10.397053,-5.920057 -0.407367,-0.195911 -0.741147,-0.246406 -1.193548,-0.302774 -1.172617,-0.14631 -1.850918,-0.469146 -2.226141,-0.733096 -0.08116,-0.05721 -0.149079,-0.111924 -0.203893,-0.161363 -0.01399,-0.01266 -0.02679,-0.02488 -0.03961,-0.03658 -0.01165,-0.01083 -0.0221,-0.0213 -0.03256,-0.03169 -0.0941,-0.09355 -0.133721,-0.157133 -0.141798,-0.16645 -0.371161,-0.436887 0.173857,-0.417195 1.018051,-0.387206 l 0.0012,-5.9e-5 c 0.09447,0.0034 0.193795,0.0067 0.295559,0.0098 0.0412,8.87e-4 0.08237,0.0026 0.126003,0.0035 0.27026,0.0059 0.558914,0.0073 0.848306,-0.0078 0.02674,-0.0012 0.05349,-0.0025 0.07901,-0.0034 0,0 0.0012,-5.8e-5 0.0012,-5.8e-5 0.592999,-0.02261 1.142603,0.03028 1.759585,0.15015 0.0036,9.43e-4 0.0084,0.0016 0.01203,0.0022 0.02165,0.0042 0.04451,0.0084 0.06736,0.01289 0.380055,0.07376 0.756819,0.166921 1.118557,0.270589 0.0077,-0.0089 -1.126444,-0.692741 -3.603814,-0.687719 -0.04125,4.2e-5 -0.352518,0.01614 -0.393724,0.01525 -0.100541,-0.0033 -0.198662,-0.0064 -0.291912,-0.01 -0.0024,3.1e-5 -0.0049,-1.06e-4 -0.0085,-1.85e-4 -0.668582,-0.02356 -1.111895,-0.03884 -1.358035,0.149162 -0.110507,0.08429 -0.158021,0.197787 -0.134342,0.319858 0.01684,0.08493 0.06852,0.177389 0.156055,0.282137 l 0.0012,8.87e-4 c 0.01825,0.02587 0.06856,0.09494 0.160288,0.187083 0.01281,0.01204 0.02439,0.02432 0.03954,0.03827 l 0.0035,0.0034 c 0.01285,0.01128 0.02567,0.02299 0.04084,0.03635 0.06877,0.06303 0.147291,0.124837 0.230799,0.183701 0.163509,0.114777 1.081287,0.807818 2.664381,1.080185 0.731941,0.126257 1.068972,0.430603 1.557087,0.774625 -0.862848,0.08922 -1.650656,0.400237 -2.30408,0.826249 -0.537173,0.34896 -0.875602,0.811429 -1.348913,1.197328 -0.166189,0.136069 -0.530328,0.467619 -0.811909,0.470825 -0.44182,0.0057 -0.486724,-0.402486 -0.396033,-0.613838 0.405497,-0.933363 1.935673,-2.251111 2.16639,-2.446898 -0.923077,0.760626 -2.003028,1.448183 -2.935755,2.207584 -0.293302,0.239125 -1.528251,1.00213 -1.485915,0.214955 0.02002,-0.367794 0.939269,-1.260388 1.402013,-1.654135 0.490558,-0.419046 1.028467,-0.811755 1.580474,-1.194169 -0.464393,0.321843 -1.14218,0.559486 -1.65945,0.842851 -0.731106,0.399778 -1.40134,0.849127 -2.073846,1.295039 -0.216292,0.144294 -0.613629,0.540306 -0.95339,0.515161 -0.346994,-0.02615 -0.406364,-0.272921 -0.295975,-0.463529 0.431335,-0.750805 1.205655,-1.467169 2.015042,-2.044792 0.550055,-0.393038 1.277642,-0.904461 1.930818,-1.215945 -0.957122,0.326564 -3.104097,1.602071 -3.437088,1.833478 -0.658569,0.459845 -1.705228,1.325973 -2.371648,1.117673 -0.705885,-0.221008 0.613184,-1.347455 1.010735,-1.721029 4.544903,-4.26276 8.663148,-4.557341 12.065856,-3.548758"
       style="fill:#d40000;fill-opacity:1;fill-rule:nonzero;stroke:none;stroke-width:0.0101287"
       id="path1710" />
    <g
       id="g2428"
       transform="matrix(2.8923205,0,0,1.3160359,-333.78146,-5.8980692)">
      <path
         d="m 118.93837,33.140496 c 0.1179,0.06492 0.25026,0.101409 0.38967,0.101409 0.49794,0 0.90134,-0.461646 0.90134,-1.03149 0,-0.56942 -0.4034,-1.031066 -0.90134,-1.031066 -0.34778,0 -0.64958,0.225731 -0.79974,0.555842 -0.0278,-0.146386 -0.0519,-0.294469 -0.0712,-0.444249 -0.0152,0.0059 -0.03,0.01188 -0.0449,0.01782 -0.5391,0.20791 -1.12565,0.238885 -1.70182,0.09547 0.13755,1.227944 0.49386,2.377392 1.02257,3.395729 0.41415,-0.495591 0.91543,-0.876194 1.45638,-1.10235 -0.0908,-0.180755 -0.17464,-0.366601 -0.25101,-0.557115"
         style="fill:#f68712;fill-opacity:1;fill-rule:nonzero;stroke:none;stroke-width:0.00396635"
         id="path844" />
      <path
         d="m 128.79298,35.295976 c -0.0541,-0.03055 -0.10937,-0.05898 -0.16536,-0.08614 -0.91357,1.017064 -2.10744,1.706139 -3.43701,1.899198 0.003,0.01018 0.007,0.02037 0.01,0.03055 0.18353,0.622882 0.20874,1.300925 0.0797,1.966663 0.64328,-0.08104 1.26283,-0.252039 1.84901,-0.501107 -0.0597,0.153175 -0.0931,0.322473 -0.0931,0.501107 0,0.681437 0.48311,1.233884 1.07856,1.233884 0.59545,0 1.07819,-0.552447 1.07819,-1.233884 0,-0.571966 -0.33962,-1.052282 -0.80049,-1.192727 0.54651,-0.372118 1.04964,-0.818064 1.49864,-1.326808 -0.23766,-0.549902 -0.61658,-1.017913 -1.09784,-1.290742"
         style="fill:#da1259;fill-opacity:1;fill-rule:nonzero;stroke:none;stroke-width:0.00396635"
         id="path846" />
      <path
         d="m 118.15234,30.427901 c 0.0801,-0.03055 0.15943,-0.06662 0.2384,-0.106076 0,-0.01994 -7.4e-4,-0.03989 -7.4e-4,-0.06025 0,-2.197062 0.89726,-4.15439 2.29505,-5.418825 -0.18353,-0.63943 -0.54762,-1.203759 -1.01182,-1.627217 -0.75414,0.666586 -1.3978,1.488045 -1.89574,2.422793 -0.0749,-0.597424 -0.52389,-1.056949 -1.06706,-1.056949 -0.59545,0 -1.07819,0.552448 -1.07819,1.234309 0,0.681437 0.48274,1.233885 1.07819,1.233885 0.18427,0 0.35779,-0.05304 0.50943,-0.146386 -0.36928,1.036582 -0.5732,2.170331 -0.5732,3.35839 0,0.05601 7.4e-4,0.112017 0.002,0.168026 0.48867,0.172693 1.01813,0.185846 1.50383,-0.0017"
         style="fill:#7fcb2d;fill-opacity:1;fill-rule:nonzero;stroke:none;stroke-width:0.00396635"
         id="path848" />
      <path
         d="m 124.33785,37.163351 c -1.9013,-0.0297 -3.58977,-1.065859 -4.67723,-2.6638 -0.0293,0.0093 -0.0582,0.01952 -0.0868,0.0297 -0.53316,0.194757 -1.00811,0.577057 -1.37443,1.068405 0.51425,0.783695 1.13862,1.467254 1.84716,2.020126 -0.4186,0.169722 -0.71855,0.626277 -0.71855,1.163449 0,0.681437 0.48274,1.234309 1.07856,1.234309 0.59546,0 1.07819,-0.552872 1.07819,-1.234309 0,-0.100985 -0.0108,-0.199 -0.0308,-0.293196 0.91468,0.432793 1.91687,0.671678 2.96836,0.671678 h 0.009 c 0.15127,-0.559661 0.16314,-1.16642 -7.4e-4,-1.723111 -0.0271,-0.09165 -0.0582,-0.182452 -0.0927,-0.273253"
         style="fill:#50aae3;fill-opacity:1;fill-rule:nonzero;stroke:none;stroke-width:0.00396635"
         id="path850" />
      <path
         d="m 125.43791,21.438958 c -0.33258,-0.04964 -0.67146,-0.07553 -1.01553,-0.07553 -0.37225,0 -0.73857,0.03013 -1.09673,0.08783 0.21171,-0.225307 0.34444,-0.546932 0.34444,-0.903774 0,-0.681437 -0.48273,-1.233885 -1.07856,-1.233885 -0.59545,0 -1.07819,0.552448 -1.07819,1.233885 0,0.543537 0.307,1.004759 0.73338,1.16939 -0.66812,0.222337 -1.29917,0.544386 -1.88016,0.951296 0.44603,0.459525 0.79418,1.022156 1.00997,1.634006 0.89392,-0.599545 1.93466,-0.943658 3.04585,-0.943658 0.2588,0 0.51388,0.01867 0.76415,0.05473 0.25138,-0.606759 0.32998,-1.302198 0.25138,-1.9743"
         style="fill:#da1259;fill-opacity:1;fill-rule:nonzero;stroke:none;stroke-width:0.00396635"
         id="path852" />
      <path
         d="m 130.21005,32.210415 c -0.0445,0.173542 -0.0949,0.343689 -0.1509,0.51129 -0.10752,-0.431944 -0.45456,-0.748053 -0.86648,-0.748053 -0.49757,0 -0.90096,0.461646 -0.90096,1.03149 0,0.56942 0.40339,1.031066 0.90096,1.031066 0.11197,0 0.21875,-0.02334 0.31775,-0.06577 -0.099,0.17736 -0.20504,0.349629 -0.31775,0.515533 0.51907,0.305501 0.95695,0.781573 1.27173,1.376027 0.68221,-0.962752 1.19239,-2.091409 1.47639,-3.325294 -0.60064,0.04073 -1.1972,-0.07128 -1.73074,-0.326292"
         style="fill:#7fcb2d;fill-opacity:1;fill-rule:nonzero;stroke:none;stroke-width:0.00396635"
         id="path854" />
      <path
         d="m 132.46951,25.655721 c -0.46531,0 -0.86166,0.337324 -1.01294,0.810002 -0.38782,-0.939416 -0.91505,-1.788454 -1.55092,-2.512746 -0.52092,0.266889 -0.9677,0.720473 -1.2213,1.306865 -0.0115,0.02631 -0.0226,0.05304 -0.0334,0.07977 1.11304,1.25213 1.80341,2.994759 1.80341,4.921961 0,0.347083 -0.0226,0.688226 -0.066,1.021731 0.52872,0.292348 1.13603,0.386544 1.7237,0.30041 0.0564,-0.431096 0.0857,-0.8728 0.0857,-1.322141 0,-0.795576 -0.0916,-1.566541 -0.26251,-2.300168 0.15758,0.103106 0.34,0.162509 0.53428,0.162509 0.59582,0 1.07856,-0.552447 1.07856,-1.234309 0,-0.681437 -0.48274,-1.233884 -1.07856,-1.233884"
         style="fill:#f68712;fill-opacity:1;fill-rule:nonzero;stroke:none;stroke-width:0.00396635"
         id="path856" />
      <path
         d="m 125.82796,24.784194 c 0,0.56942 0.40339,1.03149 0.90096,1.03149 0.49794,0 0.90134,-0.46207 0.90134,-1.03149 0,-0.151902 -0.0293,-0.296591 -0.0808,-0.426428 0.16054,0.111592 0.31626,0.231671 0.46642,0.359388 0.28179,-0.586393 0.71151,-1.076467 1.24207,-1.42355 -0.86462,-0.78709 -1.87941,-1.367966 -2.98689,-1.677286 0.0408,0.686953 -0.0519,1.369239 -0.26881,1.981938 0.17241,0.05346 0.34148,0.115411 0.50758,0.185422 -0.39153,0.112442 -0.68184,0.517655 -0.68184,1.000516"
         style="fill:#50aae3;fill-opacity:1;fill-rule:nonzero;stroke:none;stroke-width:0.00396635"
         id="path858" />
    </g>
    <path
       d="m -1.2789788,69.486059 c 0.00353,-0.0071 0.010583,-0.01058 0.014111,-0.01058 0,-0.0035 0.00353,-0.0035 0.00353,-0.0035"
       style="fill:#f29e23;fill-opacity:1;fill-rule:nonzero;stroke:none;stroke-width:0.0352778"
       id="path1708" />
    <g
       id="g34237"
       transform="matrix(0.03258903,0,0,-0.0325641,-2.6130821,56.290837)"
       style="fill:#ffffff">
      <path
         d="M 882.39226,1337.1534 V 745.77336 h 107.82999 v 215.79 h 111.85005 108.78 c -5.43,-92.24 -46.18,-175.04 -108.78,-235.16 v -134.05 c 123.9,78.19 207.88,213.66 214.96,369.21 0.36,7.09 0.48,14.17 0.48,21.26 0,29.53004 -2.84,58.46004 -8.15,86.58004 -24.22,127.67 -101.11,236.81 -207.29,303.77 v -133.93 c 47.48,-45.48 82.33,-104.06 98.74,-169.84 h -98.74 -111.85005 v 242.59 112.44 c -34.37,10.4 -70.51,16.89 -107.82999,19.02 z m 77.82999,-561.38004 h -47.83 v 634.84004 c 16.06,-2.12 32.12,-5.19 47.83,-9.09 v -362.12 h 278.98005 l -9.33,37.2 c -16.54,66.14 -50.32,126.5 -97.8,175.16 v 62.6 c 76.3,-63.55 129.1,-151.9 147.88,-250.63 5.07,-26.7 7.56,-53.75 7.56,-80.91004 0,-6.61 -0.12,-13.23 -0.48,-19.84 -5.55,-122.25 -62.48,-234.81 -154.96,-311.81 v 62.71 c 64.61,66.26 103.23,153.19 108.66,245.91 l 1.89,31.77 H 960.22225 Z m -47.83,-220.74 v 46.53 c 16.18,2.36 32.12,5.79 47.83,10.16 v -47.72 c -15.71,-3.9 -31.77,-6.85 -47.83,-8.97 z m 77.83,98.62 c -33.66,-13.7 -69.92,-22.44 -107.82999,-25.16 v -106.3 c 37.31999,2.01 73.45999,8.62 107.82999,19.02 v 112.44"
         style="fill:#ffffff;fill-opacity:1;fill-rule:evenodd;stroke:none;stroke-width:0.1"
         id="path34243" />
      <path
         d="m 832.07226,961.56336 v -215.79 h -107.832 v 215.79 h -220.512 -106.299 c -0.237,7.09 -0.472,14.17 -0.472,21.26 0,29.53004 2.834,58.46004 8.149,86.58004 32.126,169.25 156.732,305.78 319.134,355.03 34.488,10.4 70.512,16.89 107.832,19.02 v -106.3 -267.75 z m -107.832,-420.35 v 112.44 c 33.661,-13.7 69.921,-22.44 107.832,-25.16 v -106.3 c -37.32,2.01 -73.344,8.62 -107.832,19.02 z m 30,815.43004 v -317.24 h -278.976 l 9.33,37.2 c 29.764,118.94 115.039,216.97 228.307,263.15 z m 47.835,-580.87004 v 634.84004 c -23.386,-3.07 -46.536,-8.03 -69.095,-14.88 -152.953,-46.41 -268.582,-174.8 -298.464,-332 -4.489,-23.75 -6.969,-47.96 -7.441,-72.17004 h 327.165 v -215.79 z m 0,-174.21 c -16.181,2.36 -32.126,5.79 -47.835,10.16 v -47.72 c 15.826,-3.9 31.772,-6.85 47.835,-8.97 z m -288.426,467.84004 h 210.591 v 242.59 c -103.701,-42.28 -182.953,-132.28 -210.591,-242.59 v 0"
         style="fill:#ffffff;fill-opacity:1;fill-rule:evenodd;stroke:none;stroke-width:0.1"
         id="path34245" />
    </g>
  </g>
</svg>
