<?xml version="1.0" encoding="utf-8"?>
<!-- Generator: Adobe Illustrator 16.0.0, SVG Export Plug-In . SVG Version: 6.00 Build 0)  -->
<!DOCTYPE svg PUBLIC "-//W3C//DTD SVG 1.1//EN" "http://www.w3.org/Graphics/SVG/1.1/DTD/svg11.dtd">
<svg version="1.1" id="Layer_1" xmlns="http://www.w3.org/2000/svg" xmlns:xlink="http://www.w3.org/1999/xlink" x="0px" y="0px"
	 width="400px" height="400px" viewBox="0 0 400 400" enable-background="new 0 0 400 400" xml:space="preserve">
<g>
	<path d="M160.831,339.699c-9.833-4.224-16.702-13.597-18.324-24.586c-14.608-4.068-27.507-9.299-40.507-15.6v10.412
		c0,13.179-6.82,24.896-18.168,29.773L77,342.627V346h91v-3.373L160.831,339.699z M115.141,257.445
		c-0.005-0.006-0.005-0.006-0.011-0.017c-0.096-0.08-0.193-0.166-0.278-0.251c0.107,0.112,0.225,0.225,0.337,0.331
		c0.005,0.006,0.005,0.006,0.011,0.012c0.059,0.053,0.118,0.102,0.177,0.144C115.301,257.59,115.221,257.521,115.141,257.445z
		 M107.309,248.237c-1.729-2.317-3.238-4.544-4.571-6.696C104.065,243.693,105.575,245.92,107.309,248.237z M102.615,241.343
		c0.011,0.027,0.027,0.049,0.042,0.075c0.027,0.043,0.048,0.08,0.081,0.123c-0.027-0.043-0.048-0.08-0.075-0.123
		C102.647,241.392,102.631,241.37,102.615,241.343z M248.709,247.842c-0.337-0.021-0.669-0.032-1.007-0.037
		c0.295,0.016,0.589,0.043,1.028,0.063L248.709,247.842z M250.074,319.08c-0.006-0.006-0.006-0.012-0.012-0.021l-0.486-1.221
		c-0.306-0.766-0.707-1.563-1.188-2.361c-0.118-0.182-0.235-0.38-0.364-0.578c-0.053-0.086-0.107,0.047-0.166-0.033L235.663,298
		h-0.102l12.205,16.887c0.214,0.283,0.412,0.484,0.584,0.795c0.021,0.032,0.043,0.016,0.063,0.054
		c0.166,0.262,0.316,0.513,0.455,0.786c0.081,0.128,0.145,0.248,0.198,0.377c0.203,0.38,0.38,0.77,0.52,1.16
		c0.016,0.037,0.026,0.065,0.043,0.103c0.353,0.884,0.626,1.782,0.818,2.692c0.021,0.128,0.043,0.245,0.064,0.368
		c0.048,0.188,0.605,0.379,0.632,0.577c0.005,0.049,0.031,0.091,0.069,0.14L250.074,319.08z M251.637,322.318l-0.005-0.006
		c0,0,0,0-0.006-0.005c-0.128-0.123-0.305-0.241-0.412-0.364l0.349,0.856c0.085-0.064,0.171-0.128,0.197-0.192
		c0.006-0.017,0.011-0.032,0.011-0.048c0,0,0,0,0-0.012C251.771,322.474,251.718,322.398,251.637,322.318z M251.958,323.796
		l-0.016-0.043l-0.38-0.953c-0.14,0.097-0.289,0.198-0.289,0.295c0.026,0.214-0.231,0.412-0.22,0.615
		c0.01,0.123-0.097,0.229-0.112,0.348c-0.006,0.011-0.006,0.021-0.006,0.032l1.167-0.107L251.958,323.796z M228,50v3.186
		l1.029,0.498c6.916,2.704,10.418,10.069,9.459,17.103c9.352,0.546,18.745,1.648,28.027,3.292l1.682-1.847
		c5.444-5.861,12.359-10.261,19.174-13.189L302,53.186V50H228z"/>
	<path d="M342,342.14V346H234v-3.86l7.579-2.928c6.012-2.585,9.448-8.8,9.367-15.122l0.049-0.032
		c-0.006,0.011-0.032,0.021-0.032,0.032l1.153-0.107l-0.151-0.187l-0.02-0.043l0.111-0.168L251.958,323h0.08l-0.163-0.522
		c0.006-0.017,0.125,0.098,0.125,0.082c0,0,0,0,0-0.012c0-0.074-0.168-0.149-0.248-0.229l-0.063-0.006c0,0-0.029,0-0.035-0.005
		c-0.048-0.102-0.773-1.585-1.565-3.228c-0.006-0.006-0.014-0.012-0.02-0.021c-0.144-0.295-0.297-0.6-0.436-0.9
		c-0.45-0.915-0.886-1.809-1.218-2.478c-0.16-0.321-0.295-0.589-0.392-0.782c-0.086-0.177-0.146-0.072-0.167-0.098L235.663,298
		h-0.102l12.205,16.887l-12.071-16.972l-75.706-105.572L143,211.329v67.341c-3-1.627-6.104-3.346-8.833-5.14
		c-0.401-0.246-0.788-0.508-1.173-0.781c-1.59-1.092-3.142-2.216-4.652-3.367c-4.336-3.367-12.949-11.706-12.97-11.718
		c-0.048-0.048-0.11-0.096-0.158-0.144c-0.005-0.006-0.012-0.006-0.018-0.012c-0.005-0.01-0.025-0.031-0.052-0.063
		c-0.005-0.006-0.007-0.006-0.013-0.017c-0.942-1.188-10.824-13.479-12.393-15.888c-0.027-0.043-0.049-0.08-0.075-0.123
		c-0.016-0.026-0.033-0.048-0.049-0.075c-0.016-0.021-0.032-0.048-0.043-0.069c-0.027-0.048-0.264-0.096-0.286-0.15
		c-0.043-0.096-0.286-0.191-0.286-0.289V85.892C102,72.718,95.18,61,83.832,56.113L77,53.186V50h91v3.186l-6.945,2.928
		c-9.63,4.138-16.1,13.211-17.92,23.907c0,0.026,0.037,0.048,0.037,0.075c-0.311,1.884-0.172,3.828-0.172,5.797v94.684
		l75.273-82.859c1.68-0.038,3.365-0.048,4.646-0.048c7.178,0,14.351,0.321,21.144,0.937l-57.689,62.454l54.705,76.976l7.638,9.807
		c-0.337-0.021-0.673-0.032-1.011-0.037c0.295,0.016,0.588,0.043,1.027,0.063l-0.022-0.026c0.192,0.006,0.384,0.016,0.577,0.026
		l28.178,39.302l0.038,0.017l19.12,26.599l0.011,0.635l0.172,0.58h0.155l0.792,0.678c5.899,8.302,13.928,14.452,22.985,18.354
		L342,342.14z"/>
	<path d="M292.111,310.841c0.353,0.996,0.995,1.756,1.9,2.243L292.111,310.841z"/>
	<path d="M102.663,241.418c0.026,0.043,0.048,0.08,0.075,0.123c-0.032-0.043-0.053-0.08-0.081-0.123
		c-0.016-0.026-0.032-0.048-0.042-0.075C102.631,241.37,102.647,241.392,102.663,241.418z"/>
	<path d="M107.309,248.237"/>
	<path d="M248.73,247.868c-0.439-0.021-0.733-0.048-1.028-0.063c0.338,0.005,0.67,0.016,1.007,0.037L248.73,247.868z"/>
	<path d="M247.226,247.788c0.068,0.002,0.133,0.005,0.196,0.008C247.356,247.793,247.292,247.79,247.226,247.788z"/>
	<path d="M251.771,322.548c0,0.012,0,0.012,0,0.012c0,0.016-0.005,0.031-0.011,0.048l-0.123-0.289
		C251.718,322.398,251.771,322.474,251.771,322.548z"/>
	<path d="M252.103,323.982l-1.167,0.107c0-0.011,0-0.021,0.006-0.032l1.001-0.305l0.016,0.043L252.103,323.982z"/>
	<path stroke="#000000" stroke-miterlimit="10" d="M250.5,239.261v3.233c20,0,36,10.947,36,24.731v24.489l12.479,17.167
		c13.42-4.459,25.521-10.122,37.521-16.932v-24.323c0-13.779,15-24.726,35-24.726v-3.239L250.5,239.261z M298.76,309l-0.049-0.054
		l-0.043-0.064c-0.063,0.021-0.123,0.043-0.188,0.064C298.428,308.962,298.695,308.983,298.76,309z M334.57,126.382
		c-0.385,0.284-0.749,0.626-1.081,1.033c0.541,0.46,1.028,0.888,1.456,1.279C334.812,127.935,334.694,127.164,334.57,126.382z"/>
	<path stroke="#000000" stroke-miterlimit="10" d="M363.054,168.66c-0.187-0.059-0.363-0.128-0.642-0.225
		c1.193-1.611,2.141-3.276,0.808-5.005c-1.402-1.814-3.441-1.67-5.637-1.162c-0.22-0.712-0.471-1.402-0.647-2.114
		c-2.023-7.66-4.004-15.342-6.06-22.991c-0.294-1.14-0.219-1.745,0.996-2.516c4.138-2.612,4.067-8.538-0.021-10.722
		c-0.418-0.225-0.835-0.45-1.654-0.744c0.321-0.428,0.738-0.808,0.947-1.274c1.124-2.393,0.862-4.636-0.68-6.558
		c-0.819-1.006-1.788-1.67-2.912-1.964c-0.974-0.273-2.066-0.273-3.244,0c-0.24,0.059-0.455,0.107-0.642,0.15
		c-0.407,0.085-0.68,0.134-0.889,0.107c-0.466-0.048-0.558-0.46-0.755-1.542c0.508-0.508,1.017-0.985,1.515-1.456
		c0.862-0.819,1.696-1.611,2.446-2.479c0.884-1.012,0.717-1.494-0.52-1.793c-1.375-0.332-2.821-0.46-4.245-0.685
		c0.675-0.701,1.436-1.402,2.083-2.195c1.402-1.67,1.236-2.168-0.835-2.575c-1.103-0.225-2.238-0.284-3.421-0.428
		c0.798-0.851,1.654-1.67,2.397-2.575c1.087-1.349,0.938-1.81-0.685-2.227c-0.589-0.155-1.183-0.251-1.788-0.321
		c-0.594-0.07-1.188-0.091-1.819-0.14c0.947-1.022,1.911-1.932,2.735-2.965c0.894-1.124,0.749-1.627-0.61-1.948
		c-1.231-0.306-2.521-0.413-3.758-0.616c0.872-0.926,1.83-1.836,2.649-2.87c0.91-1.14,0.771-1.638-0.563-1.943
		c-1.316-0.321-2.682-0.439-4.015-0.642c0.781-0.83,1.687-1.681,2.458-2.655c0.471-0.594,0.685-1.006,0.62-1.317
		c-1.91,1.113-3.795,2.136-5.657,3.073c-1.425,0.723-2.838,1.386-4.256,2.029l-6.873,9.983c-3.362-1.542-6.794-2.998-10.289-4.363
		c-13.066-5.15-27.049-9.143-41.534-11.835c-11.61-2.157-23.553-3.501-35.619-3.913c-2.799-0.107-5.62-0.155-8.436-0.155
		c-28.248,0-53.859,3.297-76.508,9.288c-0.032,0.508,0.003,1.006,0.003,1.515v23.446c18-9.486,42.537-15.331,68.934-16.273
		c2.516-0.091,5.032-0.14,7.602-0.14c10.711,0,20.583,0.702,29.679,1.933c24.355,3.26,43.024,10.198,56.54,17.162
		c-0.894,2.821-0.847,5.824-0.472,8.87c0.145,1.113,0.32,2.205,0.486,3.308c0.295,1.98-0.57,3.651-1.86,5.16
		c-0.583,0.701-1.259,1.328-1.896,1.992c1.45,0.626,2.113,0.498,4.747-0.91c0.529,1.847,0.187,2.976-1.291,4.304
		c2.039,0.439,2.606,0.139,5.572-2.896c0.771,0.653,0.771,0.653,0.878,3.287c3.12-1.9,3.607-4.694,0.904-6.702
		c-1.429-1.065-1.862-2.313-1.729-3.924c0.154-1.97,0.417-3.929,0.717-5.883c0.086-0.616,0.45-1.199,0.782-2.04
		c0.229,0.46,0.385,0.674,0.466,0.91c3.998,11.611,7.97,23.248,12.017,34.859c2.458,7.093,5.006,14.148,7.585,21.192
		c0.675,1.836,2.142,2.987,4.117,3.399c1.718,0.369,2.574-0.413,2.237-2.109c-0.268-1.279-0.685-2.526-1.146-3.736
		c-0.321-0.83-0.434-1.552,0.139-2.372c0.59-0.819,0.386-1.365-0.583-1.552c-0.396-0.08-0.803-0.177-1.146-0.353
		c-0.749-0.38-0.455-0.964-0.155-1.542c0.937-1.841,0.937-1.841-0.963-2.409c-0.338-0.096-0.67-0.225-1.178-0.407
		c0.353-0.696,0.631-1.359,0.995-1.991c0.46-0.803,0.316-1.28-0.594-1.483c-0.664-0.15-1.29-0.38-2.142-0.626
		c0.407-0.808,0.749-1.531,1.146-2.243c0.444-0.782,0.22-1.199-0.583-1.397c-0.584-0.145-1.146-0.321-1.891-0.536
		c0.37-0.723,0.675-1.386,1.028-2.013c0.396-0.717,0.257-1.156-0.52-1.354c-0.722-0.204-1.435-0.439-2.612-0.798
		c0.563-0.792,1.039-1.424,1.467-2.087c0.477-0.734,0.311-1.221-0.551-1.408c-0.311-0.069-0.605-0.187-0.927-0.262
		c-0.99-0.214-1.177-0.808-0.738-1.697c0.134-0.257,0.268-0.519,0.407-0.771c0.423-0.723,0.342-1.183-0.504-1.456
		c-0.385-0.134-0.861-0.514-0.926-0.867c-0.696-3.592-0.975-7.2,0.23-10.877c0.418-1.268,1.001-2.344,1.718-3.185
		c0.332-0.407,0.696-0.75,1.081-1.033c0.124,0.781,0.241,1.552,0.375,2.313c0.198,1.317,0.407,2.607,0.664,3.902
		c0.354,1.874,0.846,3.72,1.221,5.583c0.069,0.321-0.021,0.75-0.198,1.044c-0.498,0.905-1.092,1.756-1.622,2.634
		c-0.358,0.615-0.117,0.985,0.498,1.172c0.728,0.214,1.445,0.455,2.414,0.771c-0.439,0.75-0.813,1.424-1.221,2.077
		c-0.497,0.781-0.375,1.279,0.524,1.504c0.739,0.193,1.445,0.439,2.495,0.771c-0.455,0.664-0.825,1.226-1.193,1.767
		c-0.605,0.916-0.472,1.509,0.631,1.745c0.573,0.134,1.124,0.342,1.729,0.524c-0.086,0.268-0.118,0.423-0.198,0.567
		c-1.103,2.323-1.103,2.323,1.29,3.132c0.257,0.08,0.508,0.203,1.05,0.428c-0.466,0.723-0.916,1.36-1.313,2.04
		c-0.374,0.637-0.219,1.076,0.487,1.28c0.723,0.214,1.43,0.46,2.446,0.792c-0.455,0.701-0.851,1.285-1.226,1.874
		c-0.477,0.76-0.252,1.21,0.562,1.424c0.696,0.177,1.359,0.417,2.163,0.653c-0.386,0.846-0.718,1.579-1.071,2.313
		c-0.32,0.701-0.128,1.209,0.611,1.188c2.542-0.075,3.678,1.424,4.582,3.447c1.921,4.282,5.449,5.979,10.267,5.374
		c0.112-0.011,0.23,0.048,0.354,0.07c0.541-0.198,1.092-0.401,1.644-0.594c0.572-0.471,1.199-0.899,1.729-1.435
		C366.528,172.456,365.966,169.656,363.054,168.66z M340.968,121.222c-0.364-1.188-0.177-2.489,0.396-3.607
		c0.139-0.284,0.311-0.541,0.508-0.792c0.52-0.69,1.21-1.247,2.029-1.552c0.406-0.145,0.813-0.236,1.236-0.263
		c0.766-0.069,1.542,0.059,2.237,0.359c1.146,0.46,2.071,1.349,2.446,2.51c0.718,2.254-0.738,5.091-3.035,5.894
		C344.351,124.626,341.653,123.449,340.968,121.222z M349.945,133.791c-2.372,0.878-5.15-0.332-5.836-2.537
		c-0.717-2.323,0.648-5.123,2.907-5.963c2.398-0.878,5.219,0.354,5.937,2.596C353.671,130.14,352.246,132.939,349.945,133.791z
		 M356.379,167.033c-0.327-0.754,0.562-1.809,1.954-2.323c1.215-0.439,2.757-0.188,2.811,0.535c0.08,1.162-0.895,1.681-1.772,2.146
		C358.269,167.959,356.689,167.734,356.379,167.033z M361.047,173.986c-1.193,0.471-2.602,0.257-2.88-0.417
		c-0.295-0.76,0.61-1.852,1.964-2.345c1.178-0.444,2.624-0.145,2.832,0.568C363.15,172.434,362.182,173.531,361.047,173.986z"/>
	<path stroke="#000000" stroke-miterlimit="10" d="M242.223,319.785c-7.125,0.615-14.324,0.938-21.558,0.938
		c-28.25,0-53.942-3.298-76.591-9.287c-18.691-4.91-35.396-11.657-49.73-19.889c-39.377-22.533-61.852-56.167-61.852-93.642
		c0-37.476,23.008-71.098,61.008-93.643v51.103c-6,12.998-10.175,27.396-10.175,42.54s4.086,29.541,11.044,42.551
		c3.485,6.522,7.827,12.69,12.877,18.431c0.916,1.043,1.879,2.075,2.85,3.095c9.196,9.631,20.633,17.943,33.987,24.502
		c21.116,10.389,47.046,16.414,76.598,16.414c3.209,0,6.409-0.071,9.607-0.226l10.786,15.014
		C241.538,318.35,241.926,319.05,242.223,319.785z"/>
	<path fill-rule="evenodd" clip-rule="evenodd" d="M345.853,131.343c-0.399-1.22,0.196-2.439,1.39-2.86
		c1.277-0.45,2.587,0.081,2.979,1.207c0.402,1.157-0.273,2.481-1.513,2.967C347.439,133.153,346.271,132.619,345.853,131.343z"/>
	<path fill-rule="evenodd" clip-rule="evenodd" d="M342.258,121.233c-0.39-1.222,0.209-2.393,1.436-2.816
		c1.31-0.453,2.562,0.07,2.946,1.23c0.378,1.14-0.322,2.479-1.548,2.96C343.865,123.092,342.664,122.507,342.258,121.233z"/>
</g>
</svg>
