<?xml version="1.0" encoding="utf-8"?>
<!-- Generator: Adobe Illustrator 16.0.0, SVG Export Plug-In . SVG Version: 6.00 Build 0)  -->
<!DOCTYPE svg PUBLIC "-//W3C//DTD SVG 1.1//EN" "http://www.w3.org/Graphics/SVG/1.1/DTD/svg11.dtd">
<svg version="1.1" id="Layer_1" xmlns="http://www.w3.org/2000/svg" xmlns:xlink="http://www.w3.org/1999/xlink" x="0px" y="0px"
	 width="100px" height="100px" viewBox="0 0 100 100" enable-background="new 0 0 100 100" xml:space="preserve">
<g id="XMLID_1578_">
	<g id="XMLID_1622_">
		<g id="XMLID_1628_">
			<polygon id="XMLID_1641_" fill="#F6921E" points="13.43,13.628 24.912,12.927 31.259,3.329 41.551,8.478 51.843,3.329 
				58.189,12.927 69.672,13.628 70.373,25.111 79.971,31.457 74.822,41.75 79.971,52.042 70.373,58.389 69.672,69.87 58.189,70.572 
				51.843,80.171 41.551,75.021 31.258,80.171 24.912,70.572 13.43,69.87 12.727,58.389 3.129,52.042 8.279,41.75 3.13,31.456 
				12.727,25.111 			"/>
			
				<linearGradient id="XMLID_2_" gradientUnits="userSpaceOnUse" x1="602.9658" y1="-1917.3584" x2="680.0701" y2="-1917.3584" gradientTransform="matrix(0.7071 0.7071 -0.7071 0.7071 -1768.444 943.2825)">
				<stop  offset="0.017" style="stop-color:#FFC635"/>
				<stop  offset="0.2379" style="stop-color:#FAAF40"/>
				<stop  offset="0.7876" style="stop-color:#F6921E"/>
				<stop  offset="0.9796" style="stop-color:#F37B20"/>
			</linearGradient>
			<polygon id="XMLID_1640_" fill="url(#XMLID_2_)" points="0,41.75 7.965,32.748 5.563,20.969 16.971,17.169 20.771,5.761 
				32.549,8.164 41.551,0.2 50.553,8.164 62.331,5.761 66.13,17.169 77.538,20.969 75.136,32.748 83.101,41.75 75.136,50.751 
				77.538,62.529 66.13,66.33 62.331,77.738 50.552,75.335 41.551,83.299 32.549,75.335 20.771,77.736 16.971,66.33 5.563,62.529 
				7.965,50.751 			"/>
			<radialGradient id="XMLID_3_" cx="35.4424" cy="35.9058" r="31.4727" gradientUnits="userSpaceOnUse">
				<stop  offset="0.017" style="stop-color:#FFC635"/>
				<stop  offset="0.2379" style="stop-color:#FAAF40"/>
				<stop  offset="0.7876" style="stop-color:#F6921E"/>
				<stop  offset="0.9796" style="stop-color:#F37B20"/>
			</radialGradient>
			<circle id="XMLID_1639_" fill="url(#XMLID_3_)" cx="41.551" cy="41.75" r="31.473"/>
			<g id="XMLID_1635_">
				<radialGradient id="XMLID_4_" cx="26.9541" cy="34.8613" r="2.4085" gradientUnits="userSpaceOnUse">
					<stop  offset="0" style="stop-color:#404041"/>
					<stop  offset="1" style="stop-color:#231F20"/>
				</radialGradient>
				<circle id="XMLID_1638_" fill="url(#XMLID_4_)" cx="26.067" cy="35.75" r="2.409"/>
				<radialGradient id="XMLID_5_" cx="57.7305" cy="34.6714" r="2.4082" gradientUnits="userSpaceOnUse">
					<stop  offset="0" style="stop-color:#404041"/>
					<stop  offset="1" style="stop-color:#231F20"/>
				</radialGradient>
				<circle id="XMLID_1637_" fill="url(#XMLID_5_)" cx="57.033" cy="35.75" r="2.408"/>
				<radialGradient id="XMLID_6_" cx="41.4229" cy="48.1641" r="7.0575" gradientUnits="userSpaceOnUse">
					<stop  offset="0.2927" style="stop-color:#404041"/>
					<stop  offset="1" style="stop-color:#231F20"/>
				</radialGradient>
				<path id="XMLID_1636_" fill="url(#XMLID_6_)" d="M41.551,50.158c2.349,0,4.252-1.904,4.252-4.253h-8.505
					C37.298,48.254,39.202,50.158,41.551,50.158z"/>
			</g>
			<linearGradient id="XMLID_7_" gradientUnits="userSpaceOnUse" x1="24.2432" y1="55.6895" x2="71.9111" y2="55.6895">
				<stop  offset="0" style="stop-color:#FFFFFF"/>
				<stop  offset="1" style="stop-color:#D0D2D3"/>
			</linearGradient>
			<path id="XMLID_1634_" fill="url(#XMLID_7_)" d="M24.243,68.038c4.965,3.275,10.913,5.184,17.308,5.184
				c14.504,0,26.714-9.813,30.36-23.16c-1.084-0.469-2.28-0.729-3.538-0.729c-0.13,0-0.259,0.014-0.388,0.019
				c-1.508-6.416-7.263-11.194-14.138-11.194c-8.023,0-14.527,6.504-14.527,14.526c0,1.523,0.235,2.993,0.67,4.372
				c-3.235,1.344-5.511,4.532-5.511,8.256c0,0.717,0.094,1.412,0.253,2.081h-7.567C26.121,67.393,25.131,67.624,24.243,68.038z"/>
			<linearGradient id="XMLID_8_" gradientUnits="userSpaceOnUse" x1="23.6582" y1="61.7324" x2="77.0191" y2="61.7324">
				<stop  offset="0" style="stop-color:#D0D2D3"/>
				<stop  offset="1" style="stop-color:#FFFFFF"/>
			</linearGradient>
			<path id="XMLID_1633_" fill="url(#XMLID_8_)" d="M91.686,69.365c0.154-0.658,0.243-1.34,0.243-2.044
				c0-4.938-4.002-8.94-8.938-8.94c-0.825,0-1.622,0.12-2.381,0.331c-0.743-4.188-4.393-7.371-8.793-7.371
				c-0.132,0-0.259,0.014-0.39,0.02c-1.506-6.415-7.262-11.193-14.137-11.193c-8.023,0-14.526,6.503-14.526,14.526
				c0,1.522,0.235,2.99,0.67,4.371c-3.236,1.345-5.512,4.533-5.512,8.257c0,0.717,0.094,1.412,0.253,2.081h-7.567
				c-3.838,0-6.949,3.111-6.949,6.949l0,0c0,3.836,3.111,6.947,6.949,6.947h9.139h25.82h24.687c3.888,0,7.04-3.152,7.04-7.04l0,0
				C97.293,72.863,94.886,70.027,91.686,69.365z"/>
			<path id="XMLID_1632_" fill="#E6E7E8" d="M91.686,69.365c0.154-0.658,0.243-1.34,0.243-2.044c0-4.938-4.002-8.94-8.938-8.94
				c-0.825,0-1.622,0.12-2.381,0.331c-0.737-4.152-4.331-7.314-8.682-7.369c-0.258,14.006-8.414,26.079-20.202,31.956h13.841h24.687
				c3.888,0,7.04-3.152,7.04-7.04l0,0C97.293,72.863,94.886,70.027,91.686,69.365z"/>
			<path id="XMLID_1631_" fill="#F1F1F2" d="M90.321,64.676c0.48,1.893-1.521,3.445-3.187,2.194
				c-0.473-0.355-0.802-0.921-1.068-1.468c-0.368-0.757-0.674-1.563-0.685-2.312c-0.03-2.185,1.806-1.95,3.356-0.717
				C89.465,62.951,90.097,63.794,90.321,64.676z"/>
			<path id="XMLID_1630_" fill="#F1F1F2" d="M28.629,70.765c1.866-0.575,3.516,1.348,2.351,3.072
				c-0.331,0.49-0.88,0.847-1.414,1.141c-0.737,0.405-1.526,0.751-2.274,0.799c-2.181,0.139-2.037-1.706-0.884-3.316
				C26.948,71.706,27.758,71.033,28.629,70.765z"/>
			<path id="XMLID_1629_" fill="#FFFFFF" d="M52.781,42.318c2.693-0.607,4.867,2.323,3.067,4.65c-0.51,0.66-1.318,1.105-2.1,1.465
				c-1.078,0.494-2.227,0.896-3.29,0.879c-3.101-0.049-2.74-2.665-0.969-4.83C50.32,43.469,51.525,42.602,52.781,42.318z"/>
		</g>
		<g id="XMLID_1623_">
			<g id="XMLID_1625_">
				<radialGradient id="XMLID_9_" cx="52.3906" cy="59.8584" r="1.3391" gradientUnits="userSpaceOnUse">
					<stop  offset="0" style="stop-color:#404041"/>
					<stop  offset="1" style="stop-color:#231F20"/>
				</radialGradient>
				<circle id="XMLID_1627_" fill="url(#XMLID_9_)" cx="51.897" cy="60.35" r="1.34"/>
				<radialGradient id="XMLID_10_" cx="69.4424" cy="59.752" r="1.3394" gradientUnits="userSpaceOnUse">
					<stop  offset="0" style="stop-color:#404041"/>
					<stop  offset="1" style="stop-color:#231F20"/>
				</radialGradient>
				<circle id="XMLID_1626_" fill="url(#XMLID_10_)" cx="69.054" cy="60.35" r="1.34"/>
			</g>
			
				<radialGradient id="XMLID_11_" cx="1041.1826" cy="666.4199" r="7.0594" gradientTransform="matrix(1 0 0 1 -980.8271 -598.6592)" gradientUnits="userSpaceOnUse">
				<stop  offset="0.2927" style="stop-color:#404041"/>
				<stop  offset="1" style="stop-color:#231F20"/>
			</radialGradient>
			<path id="XMLID_1624_" fill="url(#XMLID_11_)" d="M60.484,69.756c2.348,0,4.252-1.904,4.252-4.254h-8.505
				C56.231,67.852,58.135,69.756,60.484,69.756z"/>
		</g>
	</g>
	<g id="XMLID_1579_">
		<radialGradient id="XMLID_12_" cx="33.8262" cy="89.168" r="3.6773" gradientUnits="userSpaceOnUse">
			<stop  offset="0.0428" style="stop-color:#A7DFF8"/>
			<stop  offset="0.6495" style="stop-color:#75D0F6"/>
			<stop  offset="1" style="stop-color:#26A7DF"/>
		</radialGradient>
		<path id="XMLID_1608_" fill="url(#XMLID_12_)" d="M37.383,90.477l-0.398-0.623c-0.023-0.037-0.069-0.05-0.108-0.033l-0.533,0.235
			l-0.549-0.213l0.651-0.287c0.044-0.02,0.064-0.071,0.045-0.114c-0.02-0.044-0.071-0.064-0.115-0.044l-0.811,0.356l-0.222-0.085
			l0.128-0.327c0.017-0.045-0.006-0.095-0.05-0.113c-0.045-0.017-0.096,0.006-0.113,0.05l-0.127,0.328l-0.223-0.087l-0.149-1.012
			l0.184-0.146l0.219,0.275c0.02,0.023,0.051,0.035,0.08,0.031c0.015-0.002,0.029-0.008,0.042-0.019
			c0.037-0.029,0.044-0.083,0.014-0.122l-0.218-0.273l0.198-0.157l0.858,0.1c0.009,0,0.016,0,0.023,0
			c0.038-0.006,0.069-0.037,0.073-0.077c0.005-0.047-0.029-0.091-0.076-0.097l-0.686-0.079l0.449-0.355l0.578,0.066
			c0.008,0,0.015,0,0.022,0c0.033-0.005,0.062-0.029,0.072-0.063l0.196-0.714c0.007-0.025,0-0.055-0.017-0.077
			c-0.018-0.021-0.043-0.033-0.07-0.031l-0.74,0.027c-0.042,0-0.077,0.033-0.083,0.076l-0.067,0.578L35.4,87.818l0.081-0.708
			c0.007-0.048-0.027-0.091-0.076-0.096c-0.048-0.006-0.09,0.027-0.096,0.075l-0.103,0.88l-0.186,0.148l-0.218-0.275
			c-0.03-0.037-0.084-0.043-0.123-0.014c-0.036,0.03-0.043,0.084-0.013,0.122l0.218,0.273l-0.182,0.145l-0.96-0.381l-0.035-0.236
			l0.347-0.052c0.047-0.008,0.08-0.052,0.072-0.098c-0.007-0.049-0.051-0.082-0.099-0.074l-0.347,0.052l-0.037-0.252l0.516-0.692
			c0.029-0.039,0.021-0.093-0.018-0.122c-0.038-0.028-0.093-0.021-0.121,0.018l-0.412,0.555l-0.084-0.567l0.348-0.468
			c0.026-0.035,0.022-0.081-0.007-0.112l-0.521-0.527c-0.019-0.019-0.047-0.029-0.074-0.023c-0.027,0.004-0.052,0.021-0.064,0.044
			l-0.346,0.654c-0.02,0.037-0.01,0.085,0.025,0.111l0.468,0.348l0.085,0.582l-0.571-0.425c-0.038-0.03-0.093-0.021-0.122,0.019
			c-0.028,0.036-0.02,0.092,0.018,0.12l0.712,0.528l0.034,0.234l-0.347,0.052c-0.047,0.008-0.08,0.052-0.073,0.099
			c0.008,0.048,0.051,0.081,0.1,0.073l0.347-0.052l0.035,0.237l-0.823,0.652l-0.215-0.083l0.126-0.327
			c0.018-0.045-0.004-0.095-0.05-0.113c-0.044-0.017-0.094,0.006-0.111,0.05l-0.127,0.327l-0.221-0.085l-0.358-0.812
			c-0.02-0.044-0.07-0.063-0.114-0.044c-0.044,0.021-0.063,0.07-0.045,0.114l0.288,0.653l-0.549-0.213l-0.235-0.534
			c-0.018-0.039-0.062-0.06-0.104-0.048l-0.713,0.191c-0.027,0.008-0.049,0.028-0.059,0.054c-0.01,0.026-0.007,0.054,0.008,0.078
			l0.398,0.623c0.02,0.029,0.053,0.044,0.086,0.038c0.007,0,0.016-0.003,0.021-0.005l0.534-0.236l0.535,0.207l-0.633,0.278
			c-0.043,0.021-0.063,0.07-0.044,0.115c0.017,0.037,0.055,0.057,0.092,0.052c0.008-0.002,0.016-0.004,0.022-0.008l0.79-0.35
			l0.236,0.093l-0.126,0.325c-0.018,0.047,0.005,0.097,0.049,0.113c0.015,0.005,0.029,0.007,0.045,0.005
			c0.029-0.005,0.056-0.023,0.068-0.055l0.126-0.327l0.231,0.09l0.147,1.004l-0.191,0.151l-0.217-0.275
			c-0.029-0.037-0.084-0.044-0.122-0.015c-0.037,0.029-0.044,0.085-0.014,0.122l0.217,0.275l-0.186,0.148l-0.881-0.104
			c-0.047-0.006-0.091,0.029-0.096,0.075c-0.006,0.048,0.028,0.093,0.076,0.099l0.708,0.081l-0.462,0.366l-0.579-0.066
			c-0.042-0.006-0.082,0.02-0.093,0.063l-0.197,0.714c-0.006,0.025-0.001,0.053,0.016,0.075c0.018,0.022,0.045,0.035,0.072,0.033
			l0.738-0.027c0.003,0,0.007,0,0.011,0c0.038-0.008,0.068-0.037,0.073-0.078l0.067-0.576l0.449-0.357l-0.08,0.687
			c-0.005,0.048,0.029,0.09,0.076,0.096c0.008,0.002,0.016,0.002,0.023,0c0.037-0.006,0.069-0.037,0.073-0.075l0.1-0.86l0.198-0.155
			l0.217,0.273c0.021,0.026,0.052,0.037,0.082,0.032c0.014-0.002,0.028-0.008,0.04-0.017c0.038-0.03,0.045-0.086,0.016-0.122
			l-0.219-0.275l0.194-0.154l0.954,0.378l0.034,0.236l-0.347,0.052c-0.047,0.008-0.08,0.052-0.073,0.098
			c0.008,0.048,0.051,0.082,0.099,0.074l0.347-0.052l0.034,0.234l-0.528,0.712c-0.028,0.039-0.021,0.093,0.019,0.122
			c0.019,0.013,0.042,0.019,0.064,0.015c0.021-0.002,0.043-0.015,0.057-0.033l0.425-0.571l0.086,0.583l-0.348,0.467
			c-0.025,0.034-0.021,0.082,0.008,0.113l0.521,0.526c0.02,0.019,0.047,0.028,0.073,0.024c0.027-0.004,0.052-0.021,0.065-0.044
			l0.345-0.654c0.021-0.039,0.01-0.086-0.024-0.111l-0.468-0.348l-0.084-0.567l0.556,0.412c0.019,0.015,0.042,0.021,0.063,0.017
			c0.022-0.004,0.043-0.015,0.057-0.035c0.029-0.037,0.021-0.093-0.017-0.12l-0.694-0.516l-0.037-0.252l0.347-0.05
			c0.047-0.007,0.081-0.052,0.073-0.098c-0.007-0.048-0.051-0.081-0.099-0.074l-0.347,0.052l-0.034-0.238l0.808-0.64l0.223,0.087
			l-0.127,0.325c-0.017,0.047,0.006,0.097,0.051,0.113c0.015,0.005,0.029,0.007,0.044,0.005c0.029-0.003,0.058-0.023,0.068-0.055
			l0.126-0.326l0.236,0.091l0.35,0.791c0.016,0.035,0.054,0.056,0.092,0.051c0.008,0,0.016-0.004,0.022-0.006
			c0.044-0.021,0.063-0.072,0.045-0.114l-0.279-0.633l0.534,0.207l0.235,0.532c0.016,0.037,0.054,0.058,0.093,0.052
			c0.003-0.002,0.006-0.002,0.009-0.003l0.715-0.192c0.026-0.008,0.049-0.026,0.059-0.052C37.4,90.528,37.397,90.499,37.383,90.477z
			 M36.094,86.968l0.546-0.021l-0.146,0.527l-0.454-0.054L36.094,86.968z M33.307,85.618l0.384,0.389l-0.272,0.368l-0.367-0.274
			L33.307,85.618z M30.775,88.34l-0.294-0.461l0.527-0.142l0.184,0.418L30.775,88.34z M31.561,91.383l-0.547,0.021l0.145-0.527
			l0.454,0.052L31.561,91.383z M34.352,92.717l-0.383-0.39l0.272-0.366l0.367,0.271L34.352,92.717z M34.771,89.447l-0.772-0.298
			l0.652-0.518L34.771,89.447z M34.547,88.493l-0.652,0.518l-0.122-0.824L34.547,88.493z M33.601,88.212l0.123,0.83l-0.787-0.305
			L33.601,88.212z M32.89,88.905l0.764,0.296l-0.646,0.51L32.89,88.905z M33.119,89.845l0.646-0.511l0.12,0.815L33.119,89.845z
			 M34.058,90.124l-0.12-0.812l0.771,0.297L34.058,90.124z M36.645,90.611l-0.186-0.417l0.419-0.186l0.294,0.461L36.645,90.611z"/>
		<radialGradient id="XMLID_13_" cx="69.0547" cy="89.9023" r="5.0812" gradientUnits="userSpaceOnUse">
			<stop  offset="0.0428" style="stop-color:#A7DFF8"/>
			<stop  offset="0.6495" style="stop-color:#75D0F6"/>
			<stop  offset="1" style="stop-color:#26A7DF"/>
		</radialGradient>
		<path id="XMLID_1594_" fill="url(#XMLID_13_)" d="M73.969,91.71l-0.551-0.861c-0.032-0.05-0.095-0.068-0.149-0.045l-0.736,0.325
			l-0.76-0.294l0.901-0.397c0.061-0.027,0.088-0.098,0.062-0.158c-0.027-0.062-0.099-0.089-0.158-0.062l-1.12,0.495l-0.307-0.118
			l0.175-0.452c0.024-0.062-0.006-0.132-0.068-0.154c-0.062-0.023-0.131,0.006-0.155,0.068l-0.175,0.451l-0.309-0.12l-0.207-1.397
			l0.255-0.201l0.302,0.379c0.027,0.035,0.07,0.05,0.11,0.044c0.021-0.003,0.04-0.011,0.058-0.023
			c0.052-0.043,0.062-0.117,0.02-0.169l-0.301-0.38l0.274-0.217l1.187,0.137c0.01,0.002,0.021,0.002,0.031,0
			c0.052-0.007,0.095-0.05,0.102-0.104c0.008-0.066-0.04-0.126-0.105-0.133l-0.948-0.111l0.621-0.491l0.8,0.092
			c0.011,0.002,0.021,0.002,0.031,0c0.046-0.007,0.085-0.04,0.098-0.087l0.271-0.985c0.011-0.036,0.003-0.077-0.021-0.106
			c-0.024-0.03-0.061-0.047-0.098-0.047l-1.021,0.039c-0.06,0.002-0.108,0.048-0.115,0.105l-0.093,0.801l-0.639,0.504l0.114-0.978
			c0.008-0.064-0.041-0.126-0.106-0.133c-0.065-0.008-0.124,0.04-0.133,0.105l-0.142,1.216l-0.257,0.203l-0.301-0.379
			c-0.04-0.052-0.116-0.061-0.168-0.02c-0.052,0.042-0.06,0.118-0.02,0.17l0.301,0.379l-0.25,0.197l-1.328-0.526l-0.048-0.327
			l0.479-0.07c0.066-0.01,0.111-0.07,0.102-0.137c-0.01-0.065-0.07-0.111-0.137-0.1l-0.479,0.069l-0.051-0.346l0.713-0.959
			c0.039-0.054,0.028-0.128-0.025-0.168c-0.054-0.039-0.128-0.028-0.167,0.025l-0.569,0.766l-0.116-0.784l0.48-0.645
			c0.035-0.049,0.03-0.115-0.012-0.157l-0.718-0.727c-0.026-0.028-0.065-0.041-0.103-0.035c-0.038,0.006-0.071,0.029-0.089,0.063
			l-0.478,0.904c-0.028,0.052-0.013,0.116,0.034,0.151l0.646,0.48l0.119,0.807l-0.79-0.588c-0.054-0.041-0.128-0.03-0.168,0.023
			s-0.028,0.13,0.025,0.169l0.982,0.729l0.048,0.325l-0.479,0.07c-0.065,0.01-0.111,0.07-0.102,0.136
			c0.011,0.066,0.071,0.112,0.138,0.102l0.479-0.07l0.048,0.327l-1.137,0.9l-0.297-0.115l0.176-0.451
			c0.023-0.063-0.008-0.131-0.069-0.155c-0.063-0.023-0.131,0.008-0.155,0.068l-0.175,0.451l-0.305-0.118l-0.496-1.12
			c-0.026-0.061-0.098-0.087-0.158-0.061c-0.06,0.027-0.087,0.098-0.062,0.158l0.398,0.9l-0.759-0.294l-0.325-0.735
			c-0.024-0.056-0.084-0.083-0.142-0.068l-0.987,0.266c-0.036,0.012-0.066,0.037-0.08,0.072c-0.014,0.037-0.01,0.076,0.011,0.109
			l0.551,0.861c0.026,0.041,0.072,0.062,0.118,0.054c0.011-0.002,0.021-0.006,0.031-0.01l0.736-0.325l0.739,0.287l-0.872,0.386
			c-0.062,0.026-0.089,0.097-0.063,0.157c0.022,0.05,0.075,0.078,0.128,0.07c0.01-0.002,0.021-0.004,0.03-0.009l1.093-0.482
			l0.326,0.125l-0.175,0.453c-0.024,0.062,0.007,0.132,0.068,0.155c0.02,0.008,0.041,0.01,0.062,0.006
			c0.04-0.006,0.077-0.033,0.094-0.076l0.175-0.451l0.319,0.124l0.205,1.387l-0.265,0.209l-0.301-0.379
			c-0.04-0.052-0.116-0.062-0.168-0.021c-0.053,0.042-0.061,0.116-0.02,0.168l0.301,0.381l-0.257,0.203l-1.217-0.142
			c-0.065-0.008-0.126,0.04-0.134,0.105c-0.008,0.066,0.041,0.125,0.105,0.133l0.979,0.114l-0.639,0.505l-0.799-0.093
			c-0.059-0.007-0.114,0.032-0.13,0.087l-0.271,0.985c-0.011,0.037-0.002,0.078,0.021,0.107c0.024,0.029,0.061,0.046,0.1,0.046
			l1.021-0.038c0.005,0,0.01,0,0.014-0.002c0.053-0.008,0.095-0.05,0.103-0.104l0.092-0.801l0.621-0.491l-0.109,0.948
			c-0.009,0.064,0.04,0.125,0.105,0.133c0.011,0,0.021,0,0.031-0.002c0.053-0.008,0.095-0.048,0.102-0.104l0.138-1.187l0.273-0.217
			l0.301,0.379c0.027,0.035,0.071,0.05,0.111,0.045c0.021-0.004,0.04-0.012,0.058-0.026c0.052-0.04,0.061-0.116,0.02-0.168
			l-0.301-0.379l0.27-0.213l1.316,0.521l0.048,0.327l-0.479,0.07c-0.065,0.011-0.11,0.07-0.101,0.137
			c0.01,0.064,0.07,0.111,0.136,0.102l0.479-0.07l0.048,0.324l-0.731,0.983c-0.039,0.054-0.027,0.127,0.026,0.168
			c0.025,0.019,0.058,0.025,0.089,0.022c0.029-0.006,0.059-0.021,0.078-0.049l0.587-0.789l0.119,0.805l-0.479,0.646
			c-0.035,0.046-0.031,0.113,0.011,0.155l0.718,0.729c0.026,0.025,0.064,0.039,0.104,0.033c0.037-0.006,0.07-0.027,0.088-0.063
			l0.478-0.902c0.027-0.054,0.013-0.118-0.035-0.153l-0.646-0.48l-0.115-0.784l0.767,0.569c0.025,0.021,0.058,0.027,0.089,0.022
			c0.03-0.004,0.059-0.021,0.078-0.047c0.04-0.054,0.028-0.129-0.024-0.168l-0.959-0.712l-0.051-0.346l0.479-0.072
			c0.065-0.009,0.111-0.069,0.102-0.135c-0.009-0.066-0.07-0.11-0.137-0.102l-0.479,0.07l-0.048-0.327l1.117-0.886l0.308,0.12
			l-0.175,0.451c-0.023,0.063,0.007,0.132,0.068,0.155c0.021,0.008,0.042,0.01,0.062,0.008c0.041-0.006,0.078-0.033,0.094-0.076
			l0.175-0.451l0.325,0.126l0.483,1.093c0.022,0.05,0.075,0.077,0.128,0.07c0.011-0.002,0.021-0.004,0.03-0.01
			c0.062-0.025,0.089-0.098,0.062-0.157l-0.386-0.874l0.739,0.286l0.325,0.736c0.022,0.05,0.074,0.077,0.127,0.07
			c0.006,0,0.01-0.002,0.014-0.002l0.987-0.267c0.037-0.011,0.067-0.037,0.081-0.072C73.994,91.782,73.989,91.743,73.969,91.71z
			 M72.186,86.862l0.756-0.027l-0.201,0.729l-0.626-0.074L72.186,86.862z M68.336,84.997l0.53,0.538l-0.377,0.507l-0.506-0.377
			L68.336,84.997z M64.838,88.76l-0.407-0.639l0.729-0.195l0.256,0.578L64.838,88.76z M65.923,92.961l-0.754,0.03l0.199-0.73
			l0.628,0.074L65.923,92.961z M69.781,94.807l-0.531-0.536l0.377-0.509l0.507,0.377L69.781,94.807z M70.36,90.288l-1.066-0.412
			l0.901-0.714L70.36,90.288z M70.051,88.97l-0.902,0.716l-0.168-1.139L70.051,88.97z M68.743,88.58l0.168,1.147l-1.086-0.421
			L68.743,88.58z M67.761,89.539l1.055,0.409l-0.892,0.706L67.761,89.539z M68.078,90.839l0.893-0.708l0.167,1.128L68.078,90.839z
			 M69.374,91.224L69.209,90.1l1.063,0.412L69.374,91.224z M72.948,91.898l-0.255-0.579l0.578-0.255l0.406,0.638L72.948,91.898z"/>
		<radialGradient id="XMLID_14_" cx="53.583" cy="95.7852" r="4.0984" gradientUnits="userSpaceOnUse">
			<stop  offset="0.0428" style="stop-color:#A7DFF8"/>
			<stop  offset="0.6495" style="stop-color:#75D0F6"/>
			<stop  offset="1" style="stop-color:#26A7DF"/>
		</radialGradient>
		<path id="XMLID_1580_" fill="url(#XMLID_14_)" d="M57.547,97.242l-0.444-0.692c-0.026-0.041-0.077-0.056-0.121-0.037l-0.594,0.263
			l-0.612-0.237l0.727-0.321c0.049-0.022,0.07-0.08,0.049-0.128c-0.021-0.048-0.078-0.07-0.127-0.05l-0.903,0.399l-0.247-0.095
			l0.142-0.363c0.019-0.051-0.006-0.107-0.056-0.126c-0.05-0.021-0.105,0.006-0.125,0.056l-0.141,0.364l-0.25-0.097l-0.166-1.128
			l0.205-0.162l0.243,0.305c0.022,0.029,0.057,0.041,0.09,0.037c0.017-0.004,0.032-0.009,0.046-0.021
			c0.042-0.033,0.049-0.094,0.016-0.137l-0.242-0.305l0.221-0.176l0.956,0.111c0.01,0.001,0.019,0.001,0.026,0
			c0.042-0.006,0.076-0.041,0.082-0.086c0.006-0.052-0.032-0.1-0.085-0.106l-0.765-0.089l0.501-0.396l0.646,0.073
			c0.007,0.002,0.017,0,0.024,0c0.037-0.005,0.068-0.033,0.08-0.07l0.218-0.795c0.008-0.029,0.002-0.061-0.018-0.085
			c-0.019-0.025-0.048-0.038-0.079-0.036l-0.824,0.029c-0.047,0.002-0.087,0.039-0.092,0.087l-0.075,0.644l-0.515,0.408l0.091-0.789
			c0.007-0.054-0.031-0.103-0.085-0.107c-0.053-0.006-0.101,0.031-0.106,0.085l-0.114,0.981l-0.208,0.165l-0.242-0.308
			c-0.033-0.042-0.093-0.05-0.136-0.017c-0.042,0.035-0.049,0.095-0.016,0.137l0.242,0.308l-0.2,0.158l-1.071-0.425l-0.039-0.265
			l0.386-0.055c0.053-0.01,0.089-0.058,0.082-0.111c-0.008-0.052-0.058-0.089-0.11-0.081l-0.387,0.057l-0.04-0.279l0.574-0.772
			c0.032-0.042,0.022-0.104-0.02-0.135c-0.044-0.033-0.104-0.024-0.136,0.019l-0.459,0.619l-0.093-0.634l0.387-0.52
			c0.028-0.039,0.024-0.093-0.009-0.126l-0.579-0.588c-0.022-0.022-0.054-0.031-0.083-0.027c-0.03,0.005-0.058,0.023-0.072,0.052
			l-0.385,0.729c-0.021,0.042-0.011,0.094,0.028,0.122l0.521,0.388l0.095,0.649l-0.637-0.474c-0.044-0.031-0.104-0.024-0.136,0.021
			c-0.032,0.042-0.023,0.104,0.021,0.135l0.792,0.59l0.039,0.261L52.846,94.1c-0.053,0.008-0.09,0.058-0.081,0.109
			c0.007,0.054,0.056,0.091,0.109,0.083l0.386-0.057l0.04,0.264l-0.917,0.725l-0.239-0.092l0.141-0.364
			c0.02-0.05-0.005-0.105-0.055-0.126c-0.051-0.019-0.106,0.006-0.126,0.056l-0.141,0.364l-0.247-0.095l-0.399-0.903
			c-0.021-0.049-0.078-0.07-0.127-0.051c-0.049,0.022-0.071,0.08-0.049,0.128l0.32,0.727l-0.612-0.236l-0.262-0.594
			c-0.021-0.044-0.068-0.066-0.115-0.054l-0.795,0.215c-0.03,0.007-0.055,0.029-0.065,0.057c-0.011,0.03-0.008,0.062,0.009,0.087
			l0.444,0.695c0.021,0.033,0.059,0.05,0.095,0.045c0.01-0.002,0.018-0.004,0.026-0.008l0.594-0.263l0.596,0.231l-0.704,0.311
			c-0.049,0.022-0.071,0.079-0.049,0.127c0.018,0.041,0.06,0.063,0.102,0.058c0.009-0.002,0.018-0.004,0.025-0.007l0.881-0.391
			l0.263,0.102l-0.141,0.364c-0.02,0.05,0.005,0.105,0.055,0.126c0.017,0.006,0.033,0.007,0.05,0.006
			c0.033-0.006,0.063-0.028,0.076-0.062l0.141-0.364l0.259,0.1l0.164,1.119l-0.213,0.168l-0.243-0.307
			c-0.032-0.041-0.093-0.049-0.136-0.015c-0.041,0.033-0.049,0.094-0.016,0.135l0.243,0.307l-0.207,0.164l-0.981-0.114
			c-0.054-0.006-0.102,0.031-0.107,0.085s0.031,0.102,0.085,0.107l0.789,0.093l-0.516,0.406l-0.644-0.074
			c-0.048-0.005-0.092,0.024-0.104,0.07l-0.219,0.795c-0.009,0.03-0.002,0.062,0.017,0.085c0.019,0.024,0.049,0.039,0.08,0.037
			l0.823-0.031c0.004,0,0.008,0,0.011,0c0.043-0.008,0.077-0.041,0.082-0.085l0.075-0.646l0.501-0.397l-0.089,0.766
			c-0.006,0.054,0.032,0.102,0.085,0.107c0.009,0.002,0.018,0.002,0.025,0c0.043-0.006,0.077-0.041,0.082-0.085l0.11-0.956
			l0.221-0.176l0.243,0.307c0.022,0.028,0.058,0.041,0.091,0.035c0.015-0.001,0.031-0.009,0.045-0.02
			c0.042-0.033,0.05-0.095,0.016-0.136l-0.242-0.307l0.217-0.172l1.063,0.422l0.039,0.264l-0.387,0.056
			c-0.053,0.01-0.09,0.058-0.082,0.111c0.008,0.052,0.057,0.089,0.11,0.081l0.387-0.058l0.038,0.263l-0.59,0.791
			c-0.031,0.045-0.022,0.104,0.021,0.137c0.021,0.016,0.048,0.021,0.071,0.018c0.025-0.002,0.048-0.016,0.063-0.037l0.475-0.638
			l0.096,0.65l-0.387,0.52c-0.028,0.039-0.026,0.092,0.008,0.126l0.579,0.588c0.022,0.021,0.053,0.031,0.083,0.027
			c0.03-0.006,0.058-0.024,0.071-0.052l0.386-0.729c0.021-0.042,0.01-0.094-0.028-0.122l-0.521-0.388l-0.093-0.633l0.617,0.459
			c0.021,0.017,0.047,0.021,0.072,0.019c0.023-0.004,0.047-0.017,0.063-0.037c0.031-0.045,0.022-0.104-0.021-0.137l-0.773-0.573
			l-0.041-0.279l0.387-0.058c0.053-0.007,0.09-0.057,0.081-0.108c-0.007-0.054-0.056-0.091-0.109-0.082l-0.386,0.056l-0.04-0.265
			l0.901-0.713l0.249,0.096l-0.141,0.364c-0.02,0.05,0.006,0.107,0.056,0.126c0.016,0.007,0.032,0.007,0.048,0.005
			c0.033-0.003,0.063-0.027,0.077-0.061l0.141-0.364l0.263,0.102l0.39,0.882c0.018,0.041,0.06,0.063,0.103,0.058
			c0.008-0.002,0.017-0.004,0.024-0.008c0.049-0.021,0.071-0.079,0.049-0.127l-0.311-0.705l0.597,0.231l0.263,0.594
			c0.018,0.038,0.06,0.063,0.102,0.056c0.005,0,0.008,0,0.012-0.002l0.795-0.215c0.03-0.008,0.055-0.029,0.065-0.06
			C57.566,97.302,57.563,97.269,57.547,97.242z M56.109,93.333l0.609-0.022l-0.163,0.588l-0.506-0.06L56.109,93.333z M53.004,91.83
			l0.428,0.433l-0.304,0.408l-0.409-0.303L53.004,91.83z M50.183,94.863l-0.328-0.514l0.588-0.159l0.206,0.466L50.183,94.863z
			 M51.058,98.252l-0.608,0.024l0.161-0.588l0.506,0.059L51.058,98.252z M54.169,99.74l-0.428-0.433l0.304-0.408l0.409,0.303
			L54.169,99.74z M54.637,96.097l-0.861-0.333l0.728-0.575L54.637,96.097z M54.387,95.033l-0.728,0.577l-0.136-0.919L54.387,95.033z
			 M53.332,94.72l0.137,0.926l-0.876-0.34L53.332,94.72z M52.54,95.492l0.851,0.331l-0.719,0.569L52.54,95.492z M52.796,96.54
			l0.72-0.571l0.134,0.91L52.796,96.54z M53.841,96.851l-0.133-0.905l0.857,0.332L53.841,96.851z M56.724,97.395l-0.206-0.466
			l0.466-0.205l0.328,0.514L56.724,97.395z"/>
	</g>
</g>
</svg>
