<?xml version="1.0" encoding="UTF-8" standalone="no"?>
<!-- Created with Inkscape (http://www.inkscape.org/) -->

<svg
   version="1.1"
   id="svg34231"
   xml:space="preserve"
   width="2800"
   height="2800"
   viewBox="0 0 2800 2800"
   xmlns="http://www.w3.org/2000/svg"
   xmlns:svg="http://www.w3.org/2000/svg"><defs
     id="defs34235" /><path
     d="m 1465.7626,344.0934 v 1768.4223 h 323.3965 v -645.2836 h 335.4532 326.2457 c -16.2853,275.8282 -138.4999,523.4276 -326.2457,703.2063 v 400.8539 c 371.5926,-233.814 623.4598,-638.9142 644.6937,-1104.0602 1.0797,-21.2015 1.4396,-42.373 1.4396,-63.5745 0,-88.3046 -8.5176,-174.8148 -24.443,-258.903 -72.639,-381.77558 -303.2423,-708.14035 -621.6903,-908.37294 v 400.49509 c 142.3989,136.00027 246.9187,311.17388 296.1344,507.87785 H 2124.6123 1789.1591 V 419.33014 83.097277 C 1686.0789,51.99783 1577.6902,32.590579 1465.7626,26.221174 Z m 233.4225,1678.7124 H 1555.7366 V 124.42366 c 48.1661,6.3395 96.3321,15.51982 143.4485,27.18211 V 1234.4646 h 836.6984 l -27.982,-111.2404 C 2458.2959,925.44373 2356.9852,744.94733 2214.5863,599.4378 V 412.24305 c 228.8339,190.03556 387.1881,454.23134 443.5118,749.46675 15.2056,79.8419 22.6735,160.7303 22.6735,241.9478 0,19.7661 -0.3599,39.5621 -1.4396,59.3282 -16.6452,365.568 -187.3858,702.1597 -464.7457,932.4153 v -187.5237 c 193.774,-198.1394 309.6005,-458.0889 325.8858,-735.3524 l 5.6684,-95.0029 h -846.9554 z m -143.4485,660.0857 v -139.1401 c 48.526,-7.0572 96.3321,-17.314 143.4485,-30.3818 v 142.6986 c -47.1164,11.6623 -95.2824,20.4838 -143.4485,26.8233 z m 233.4225,-294.9065 c -100.9508,40.9676 -209.6994,67.1031 -323.3965,75.2368 v 317.8722 c 111.9276,-6.0106 220.3163,-25.7767 323.3965,-56.8761 V 2387.985"
     style="fill:#ffffff;fill-opacity:1;fill-rule:evenodd;stroke:none;stroke-width:0.299473"
     id="path34243" /><path
     d="m 1314.8462,1467.2321 v 645.2836 H 991.44371 V 1467.2321 H 330.09885 11.293988 c -0.710794,-21.2015 -1.4155906,-42.373 -1.4155906,-63.5745 0,-88.3046 8.4995436,-174.8148 24.4399366,-258.903 C 130.66849,638.64104 504.37848,230.3711 991.44371,83.097277 1094.8778,51.99783 1202.9186,32.590579 1314.8462,26.221174 V 344.0934 1144.7546 Z M 991.44371,2724.2179 V 2387.985 c 100.95379,40.9676 209.70239,67.1031 323.40249,75.2368 v 317.8722 c -111.9276,-6.0106 -219.9684,-25.7767 -323.40249,-56.8761 z M 1081.4177,285.81184 V 1234.4646 H 244.73152 l 27.98191,-111.2404 C 361.97963,767.55423 617.73072,474.41204 957.43654,336.31854 Z M 1224.8812,2022.8058 V 124.42366 c -70.1377,9.18031 -139.5676,24.01236 -207.2251,44.49613 -458.72639,138.78128 -805.51316,522.70993 -895.13326,992.79001 -13.46311,71.0204 -20.90096,143.4163 -22.31655,215.8123 h 981.21141 v 645.2837 z m 0,520.9456 c -48.5289,-7.0572 -96.3501,-17.314 -143.4635,-30.3818 v 142.6986 c 47.4643,11.6623 95.2885,20.4838 143.4635,26.8233 z M 359.85325,1144.7546 H 991.44371 V 419.33014 C 680.4306,545.76135 442.74329,814.89118 359.85325,1144.7546 v 0"
     style="fill:#ffffff;fill-opacity:1;fill-rule:evenodd;stroke:none;stroke-width:0.299473"
     id="path34245" /></svg>
