<?xml version="1.0" encoding="UTF-8" standalone="no"?>
<!-- Created with Inkscape (http://www.inkscape.org/) -->

<svg
   version="1.1"
   id="svg34231"
   xml:space="preserve"
   width="100"
   height="100"
   viewBox="0 0 100 100"
   xmlns="http://www.w3.org/2000/svg"
   xmlns:svg="http://www.w3.org/2000/svg"><defs
     id="defs34235" /><path
     d="m 52.680515,12.828641 v 62.68451 H 64.094438 V 52.640059 H 75.933889 87.448372 C 86.8736,62.417222 82.560168,71.193773 75.933889,77.566313 v 14.208898 c 13.114952,-8.287906 22.004327,-22.647319 22.753753,-39.135152 0.03811,-0.751519 0.05081,-1.501978 0.05081,-2.253497 0,-3.130095 -0.300617,-6.196589 -0.862686,-9.177224 C 95.31205,27.676701 87.173159,16.108188 75.933889,9.0106291 V 23.206807 c 5.02581,4.820744 8.714721,11.030048 10.451738,18.002531 H 75.933889 64.094438 V 15.495526 3.5772229 C 60.456336,2.4748541 56.630877,1.7869336 52.680515,1.56116 Z m 8.23839,59.5046 H 55.856047 V 5.0421014 c 1.699969,0.2247137 3.399938,0.5501245 5.062858,0.9635128 V 44.389248 H 90.449251 L 89.46166,40.446159 C 87.710883,33.435518 84.135232,27.037539 79.109422,21.879725 v -6.635412 c 8.076439,6.736109 13.665377,16.100944 15.653261,26.566028 0.536665,2.83012 0.800234,5.697339 0.800234,8.576221 0,0.70064 -0.0127,1.402341 -0.05081,2.102981 C 94.924633,65.447676 88.89853,77.378698 79.10942,85.540467 v -6.647072 c 6.83904,-7.023361 10.927009,-16.23768 11.501781,-26.065722 l 0.200058,-3.367524 H 60.918905 Z m -5.062858,23.397778 v -4.93204 c 1.712671,-0.250153 3.399938,-0.613723 5.062858,-1.07693 v 5.058177 c -1.66292,0.413388 -3.362889,0.726079 -5.062858,0.950793 z m 8.238391,-10.453424 c -3.562948,1.452159 -7.401109,2.378572 -11.413923,2.666884 V 99.21196 c 3.950362,-0.213054 7.775821,-0.913694 11.413923,-2.016063 V 85.277595"
     style="fill:#000000;fill-opacity:1;fill-rule:evenodd;stroke:none;stroke-width:0.0105924"
     id="path34243" /><path
     d="M 47.354088,52.640059 V 75.513151 H 35.939952 V 52.640059 H 12.598514 1.3466483 c -0.025087,-0.751519 -0.049962,-1.501978 -0.049962,-2.253497 0,-3.130095 0.299982,-6.196589 0.8625806,-9.177224 C 5.5598397,23.269346 18.749522,8.7975752 35.939952,3.5772229 39.590545,2.4748541 43.403725,1.7869336 47.354088,1.56116 V 12.828641 41.209338 Z M 35.939952,97.195897 V 85.277595 c 3.563054,1.452159 7.401215,2.378572 11.414136,2.666884 V 99.21196 C 43.403725,98.998906 39.590545,98.298266 35.939952,97.195897 Z M 39.115485,10.76276 V 44.389248 H 9.5855687 L 10.573159,40.446159 C 13.723712,27.838876 22.750164,17.44799 34.739707,12.553049 Z m 5.063388,61.570481 V 5.0421014 C 41.703439,5.3675122 39.252986,5.8932574 36.865091,6.6193368 20.674848,11.538658 8.4353907,25.147612 5.2723481,41.810341 4.7971825,44.32777 4.5346718,46.893957 4.4847101,49.460149 H 39.115485 v 22.873092 z m 0,18.465738 C 42.466096,90.548826 40.7783,90.185256 39.115485,89.722049 v 5.058177 c 1.6752,0.413388 3.363101,0.726079 5.063388,0.950793 z M 13.648663,41.209338 H 35.939952 V 15.495526 C 24.963087,19.977079 16.574176,29.516809 13.648663,41.209338 v 0"
     style="fill:#000000;fill-opacity:1;fill-rule:evenodd;stroke:none;stroke-width:0.0105924"
     id="path34245" /></svg>
