<?xml version="1.0" encoding="UTF-8" standalone="no"?>
<!-- Created with Inkscape (http://www.inkscape.org/) -->

<svg
   version="1.1"
   id="svg34231"
   xml:space="preserve"
   width="150"
   height="72"
   viewBox="0 0 150 72"
   xmlns="http://www.w3.org/2000/svg"
   xmlns:svg="http://www.w3.org/2000/svg"><defs
     id="defs34235" /><g
     id="g95864"><g
       id="g95907"><g
         id="g895"
         transform="matrix(0.06577442,0,0,0.06932082,-25.879566,-58.439171)"
         style="fill:#ffffff"><path
           d="m 819.41954,1011.1247 v 512.083 h 94.14492 v -186.8551 h 97.65484 94.9743 c -4.7408,79.8717 -40.3191,151.5692 -94.9743,203.6278 v 116.0755 c 108.1754,-67.7057 181.4972,-185.0107 187.6787,-319.7033 0.3143,-6.1393 0.4191,-12.27 0.4191,-18.4093 0,-25.5704 -2.4796,-50.6212 -7.1157,-74.9707 -21.1461,-110.5509 -88.2778,-205.0565 -180.9821,-263.038 v 115.9716 c 41.4542,39.3816 71.8812,90.1067 86.2086,147.0664 h -86.2086 -97.65484 v -210.0615 -97.36314 c -30.00798,-9.00549 -61.56134,-14.62525 -94.14492,-16.46965 z m 67.95232,486.1056 H 845.61212 V 947.51486 c 14.02181,1.83573 28.04352,4.49408 41.75974,7.87114 v 313.564 h 243.57384 l -8.146,-32.2119 c -14.4408,-57.2714 -43.9337,-109.5379 -85.3878,-151.6731 v -54.2061 c 66.6165,55.0287 112.7155,131.532 129.112,217.0234 4.4266,23.1199 6.6006,46.5428 6.6006,70.061 0,5.7236 -0.1048,11.456 -0.4191,17.1797 -4.8456,105.8577 -54.5504,203.3248 -135.2935,270 v -54.3013 c 56.4101,-57.3754 90.1287,-132.6491 94.8696,-212.9365 l 1.6501,-27.51 H 887.37186 Z m -41.75974,191.1415 v -40.2909 c 14.12656,-2.0436 28.04352,-5.0137 41.75974,-8.7977 v 41.3213 c -13.71622,3.377 -27.73793,5.9315 -41.75974,7.7673 z m 67.95234,-85.3963 c -29.3881,11.863 -61.04621,19.4311 -94.14492,21.7864 v 92.0464 c 32.58358,-1.7405 64.13694,-7.4642 94.14492,-16.4697 v -97.3631"
           style="fill:#ffffff;fill-opacity:1;fill-rule:evenodd;stroke:none;stroke-width:0.0869493"
           id="path34243" /><path
           d="m 775.4858,1336.3526 v 186.8551 H 681.33912 V 1336.3526 H 488.81303 396.00478 c -0.20692,-6.1393 -0.41209,-12.27 -0.41209,-18.4093 0,-25.5704 2.47432,-50.6212 7.11478,-74.9707 28.04879,-146.5556 136.84062,-264.77849 278.63165,-307.42464 30.11103,-9.00549 61.5631,-14.62525 94.14668,-16.46965 v 92.04639 231.8479 z m -94.14668,363.986 v -97.3631 c 29.38897,11.863 61.04708,19.4311 94.14668,21.7864 v 92.0464 c -32.58358,-1.7405 -64.03565,-7.4642 -94.14668,-16.4697 z M 707.5317,994.24812 V 1268.95 H 463.96149 l 8.14589,-32.2119 c 25.98656,-102.9916 100.43903,-187.8769 199.33179,-227.8647 z m 41.76409,502.98218 V 947.51486 c -20.418,2.65835 -40.62992,6.95327 -60.32591,12.88477 -133.54121,40.18697 -234.49536,151.36137 -260.58493,287.48267 -3.91929,20.5654 -6.08454,41.5292 -6.49664,62.4929 H 707.5317 v 186.8551 z m 0,150.8506 c -14.12739,-2.0436 -28.04876,-5.0137 -41.76409,-8.7977 v 41.3213 c 13.81751,3.377 27.73976,5.9315 41.76409,7.7673 z M 497.47492,1242.9726 h 183.8642 v -210.0615 c -90.53996,36.6107 -159.73383,114.5428 -183.8642,210.0615 v 0"
           style="fill:#ffffff;fill-opacity:1;fill-rule:evenodd;stroke:none;stroke-width:0.0869493"
           id="path34245" /></g><text
         xml:space="preserve"
         style="font-style:normal;font-weight:normal;font-size:25.1777px;line-height:1.25;font-family:sans-serif;fill:#ffffff;fill-opacity:1;stroke:none;stroke-width:0.629437"
         x="97.143471"
         y="22.341534"
         id="text9339"
         transform="scale(0.58482484,1.7099137)"><tspan
           id="tspan9337"
           x="97.143471"
           y="22.341534"
           style="font-style:normal;font-variant:normal;font-weight:900;font-stretch:normal;font-size:25.1777px;font-family:Arial;-inkscape-font-specification:'Arial, Heavy';font-variant-ligatures:normal;font-variant-caps:normal;font-variant-numeric:normal;font-variant-east-asian:normal;fill:#ffffff;stroke-width:0.629437">PhChamber</tspan></text><text
         xml:space="preserve"
         style="font-style:normal;font-weight:normal;font-size:10.8056px;line-height:1.25;font-family:sans-serif;fill:#ffffff;fill-opacity:1;stroke:none;stroke-width:0.270139"
         x="79.679115"
         y="35.604122"
         id="text13933"
         transform="scale(0.699779,1.4290226)"><tspan
           id="tspan13931"
           x="79.679115"
           y="35.604122"
           style="font-style:italic;font-variant:normal;font-weight:normal;font-stretch:normal;font-size:10.8056px;font-family:'Bodoni MT';-inkscape-font-specification:'Bodoni MT, Italic';font-variant-ligatures:normal;font-variant-caps:normal;font-variant-numeric:normal;font-variant-east-asian:normal;fill:#ffffff;stroke-width:0.270139">Makes your future better.</tspan></text></g></g></svg>
