<?xml version="1.0" encoding="utf-8"?>
<!-- Generator: Adobe Illustrator 16.0.0, SVG Export Plug-In . SVG Version: 6.00 Build 0)  -->
<!DOCTYPE svg PUBLIC "-//W3C//DTD SVG 1.1//EN" "http://www.w3.org/Graphics/SVG/1.1/DTD/svg11.dtd">
<svg version="1.1" id="Layer_1" xmlns="http://www.w3.org/2000/svg" xmlns:xlink="http://www.w3.org/1999/xlink" x="0px" y="0px"
	 width="100px" height="100px" viewBox="0 0 100 100" enable-background="new 0 0 100 100" xml:space="preserve">
<g id="XMLID_1747_">
	<radialGradient id="XMLID_2_" cx="19.1064" cy="28.3096" r="43.2571" gradientUnits="userSpaceOnUse">
		<stop  offset="0" style="stop-color:#E6E7E8"/>
		<stop  offset="1" style="stop-color:#929497"/>
	</radialGradient>
	<path id="XMLID_1782_" fill="url(#XMLID_2_)" d="M11.975,25.427c0.033,0,0.066,0.004,0.1,0.005c-0.063-0.549-0.1-1.106-0.1-1.672
		c0-7.98,6.47-14.45,14.449-14.45c6.92,0,12.699,4.863,14.115,11.357c1.755-1.066,3.808-1.691,6.012-1.691
		c6.413,0,11.611,5.199,11.611,11.612c0,0.23-0.021,0.455-0.034,0.682c0.556-0.104,1.126-0.166,1.712-0.166
		c5.059,0,9.161,4.101,9.161,9.161c0,5.059-4.103,9.16-9.161,9.16c-1.287,0-2.513-0.268-3.623-0.748
		c-2.082,1.978-4.891,3.2-7.988,3.2c-0.381,0-0.757-0.021-1.128-0.057c-2.13,2.479-5.282,4.056-8.807,4.056
		c-2.867,0-5.487-1.045-7.514-2.768c-1.979,1.567-4.475,2.51-7.194,2.51c-4.779,0-8.881-2.89-10.662-7.015
		c-0.313,0.026-0.629,0.047-0.949,0.047c-6.413,0-11.611-5.198-11.611-11.61C0.363,30.625,5.562,25.427,11.975,25.427z"/>
	<path id="XMLID_1781_" fill="#E6E7E8" d="M39.809,18.31c-2.151-5.278-7.332-9-13.385-9c-7.979,0-14.449,6.469-14.449,14.45
		c0,0.566,0.036,1.124,0.1,1.672c-0.033-0.001-0.066-0.005-0.1-0.005c-6.413,0-11.611,5.199-11.611,11.612
		c0,6.413,5.198,11.61,11.611,11.61c0.019,0,0.036-0.001,0.056-0.001C26.811,45.786,38.234,33.512,39.809,18.31z"/>
	<path id="XMLID_1780_" fill="#D0D2D3" d="M5.687,29.244c1.812-0.559,3.414,1.308,2.281,2.982c-0.321,0.476-0.854,0.821-1.372,1.106
		c-0.715,0.394-1.481,0.729-2.208,0.775c-2.115,0.137-1.977-1.655-0.856-3.218C4.056,30.157,4.843,29.504,5.687,29.244z"/>
	<path id="XMLID_1779_" fill="#D0D2D3" d="M20.529,12.519c2.614-0.589,4.725,2.255,2.978,4.515c-0.496,0.641-1.28,1.074-2.039,1.42
		c-1.045,0.48-2.16,0.871-3.192,0.854c-3.011-0.047-2.661-2.586-0.939-4.688C18.141,13.636,19.311,12.794,20.529,12.519z"/>
	<linearGradient id="XMLID_3_" gradientUnits="userSpaceOnUse" x1="23.9834" y1="38.1792" x2="56.6063" y2="38.1792">
		<stop  offset="0" style="stop-color:#FFFFFF"/>
		<stop  offset="1" style="stop-color:#D0D2D3"/>
	</linearGradient>
	<path id="XMLID_1778_" fill="url(#XMLID_3_)" d="M69.001,40.264c0-5.06-4.103-9.161-9.161-9.161c-0.586,0-1.156,0.062-1.712,0.166
		c0.013-0.227,0.034-0.451,0.034-0.682c0-4.333-2.375-8.109-5.893-10.104c-5.653,1.836-9.742,7.145-9.742,13.411
		c0,1.479,0.229,2.904,0.651,4.243c-3.141,1.306-5.351,4.401-5.351,8.013c0,0.698,0.091,1.372,0.246,2.022h-7.346
		c-3.725,0-6.745,3.019-6.745,6.744l0,0c0,0.232,0.013,0.465,0.035,0.691c2.552-0.094,4.889-1.016,6.762-2.5
		c2.026,1.723,4.646,2.768,7.514,2.768c3.524,0,6.677-1.576,8.807-4.056c0.371,0.035,0.747,0.057,1.128,0.057
		c3.098,0,5.906-1.222,7.988-3.2c1.11,0.479,2.336,0.748,3.623,0.748C64.898,49.424,69.001,45.323,69.001,40.264z"/>
	<linearGradient id="XMLID_4_" gradientUnits="userSpaceOnUse" x1="27.835" y1="42.6772" x2="79.6319" y2="42.6772">
		<stop  offset="0" style="stop-color:#D0D2D3"/>
		<stop  offset="1" style="stop-color:#FFFFFF"/>
	</linearGradient>
	<path id="XMLID_1777_" fill="url(#XMLID_4_)" d="M93.868,50.087c0.149-0.639,0.236-1.302,0.236-1.986
		c0-4.792-3.884-8.677-8.677-8.677c-0.801,0-1.574,0.118-2.312,0.321c-0.722-4.064-4.263-7.155-8.534-7.155
		c-0.128,0-0.252,0.014-0.378,0.02c-1.463-6.227-7.05-10.866-13.724-10.866c-7.788,0-14.101,6.313-14.101,14.102
		c0,1.479,0.229,2.903,0.65,4.242c-3.14,1.306-5.35,4.401-5.35,8.014c0,0.697,0.091,1.371,0.246,2.021H34.58
		c-3.724,0-6.745,3.021-6.745,6.745l0,0c0,3.726,3.021,6.745,6.745,6.745h8.872h25.063h23.963c3.773,0,6.833-3.059,6.833-6.833l0,0
		C99.312,53.48,96.976,50.729,93.868,50.087z"/>
	<path id="XMLID_1776_" fill="#E6E7E8" d="M93.868,50.087c0.149-0.639,0.236-1.302,0.236-1.986c0-4.792-3.884-8.677-8.677-8.677
		c-0.801,0-1.574,0.118-2.312,0.321c-0.715-4.03-4.203-7.1-8.426-7.152c-0.251,13.595-8.168,25.315-19.611,31.019h13.437h23.963
		c3.773,0,6.833-3.059,6.833-6.833l0,0C99.312,53.48,96.976,50.729,93.868,50.087z"/>
	<path id="XMLID_1775_" fill="#F1F1F2" d="M92.544,45.535c0.466,1.837-1.478,3.344-3.093,2.13c-0.458-0.345-0.777-0.894-1.037-1.425
		c-0.357-0.734-0.653-1.518-0.664-2.244c-0.029-2.12,1.753-1.893,3.258-0.696C91.713,43.859,92.326,44.677,92.544,45.535z"/>
	<path id="XMLID_1774_" fill="#F1F1F2" d="M32.659,51.445c1.812-0.559,3.413,1.308,2.282,2.982c-0.321,0.475-0.854,0.82-1.372,1.105
		c-0.715,0.394-1.482,0.729-2.208,0.774c-2.116,0.137-1.979-1.655-0.857-3.217C31.029,52.358,31.814,51.705,32.659,51.445z"/>
	<path id="XMLID_1773_" fill="#FFFFFF" d="M56.104,23.831c2.615-0.588,4.726,2.256,2.979,4.515c-0.496,0.641-1.28,1.073-2.039,1.421
		c-1.047,0.479-2.161,0.87-3.194,0.854c-3.009-0.048-2.66-2.587-0.94-4.688C53.717,24.948,54.886,24.106,56.104,23.831z"/>
	<g id="XMLID_1770_">
		<radialGradient id="XMLID_5_" cx="58.21" cy="43.4995" r="1.3002" gradientUnits="userSpaceOnUse">
			<stop  offset="0" style="stop-color:#404041"/>
			<stop  offset="1" style="stop-color:#231F20"/>
		</radialGradient>
		<circle id="XMLID_1772_" fill="url(#XMLID_5_)" cx="57.73" cy="43.978" r="1.301"/>
		<radialGradient id="XMLID_6_" cx="74.7617" cy="43.3965" r="1.3004" gradientUnits="userSpaceOnUse">
			<stop  offset="0" style="stop-color:#404041"/>
			<stop  offset="1" style="stop-color:#231F20"/>
		</radialGradient>
		<circle id="XMLID_1771_" fill="url(#XMLID_6_)" cx="74.385" cy="43.978" r="1.301"/>
	</g>
	<g id="XMLID_1760_">
		<g id="XMLID_1767_">
			
				<radialGradient id="XMLID_7_" cx="25.7441" cy="69.626" r="2.9688" gradientTransform="matrix(1 0 0 1.376 0 -26.1766)" gradientUnits="userSpaceOnUse">
				<stop  offset="0.0428" style="stop-color:#A7DFF8"/>
				<stop  offset="0.6495" style="stop-color:#75D0F6"/>
				<stop  offset="1" style="stop-color:#26A7DF"/>
			</radialGradient>
			<path id="XMLID_1769_" fill="url(#XMLID_7_)" d="M26.442,65.866c-0.108-0.187-0.379-0.187-0.487,0
				c-0.902,1.57-3.814,7.131,0.243,7.131C30.257,72.997,27.344,67.437,26.442,65.866z"/>
			<path id="XMLID_1768_" fill="#F1F1F2" d="M24.473,71.528c0.01-0.491,0.599-0.735,0.92-0.321c0.09,0.117,0.132,0.277,0.161,0.427
				c0.038,0.208,0.06,0.423,0.013,0.605c-0.139,0.532-0.567,0.354-0.861-0.048C24.567,72.002,24.47,71.757,24.473,71.528z"/>
		</g>
		<g id="XMLID_1764_">
			
				<radialGradient id="XMLID_8_" cx="52.9619" cy="69.626" r="2.9688" gradientTransform="matrix(1 0 0 1.376 0 -26.1766)" gradientUnits="userSpaceOnUse">
				<stop  offset="0.0428" style="stop-color:#A7DFF8"/>
				<stop  offset="0.6495" style="stop-color:#75D0F6"/>
				<stop  offset="1" style="stop-color:#26A7DF"/>
			</radialGradient>
			<path id="XMLID_1766_" fill="url(#XMLID_8_)" d="M53.659,65.866c-0.107-0.187-0.377-0.187-0.485,0
				c-0.902,1.57-3.814,7.131,0.243,7.131C57.476,72.997,54.563,67.437,53.659,65.866z"/>
			<path id="XMLID_1765_" fill="#F1F1F2" d="M51.691,71.528c0.009-0.491,0.598-0.735,0.918-0.321
				c0.092,0.117,0.134,0.277,0.161,0.427c0.04,0.208,0.061,0.423,0.014,0.605c-0.138,0.532-0.567,0.354-0.862-0.048
				C51.785,72.002,51.688,71.757,51.691,71.528z"/>
		</g>
		<g id="XMLID_1761_">
			
				<radialGradient id="XMLID_9_" cx="36.9297" cy="75.0264" r="2.9692" gradientTransform="matrix(1 0 0 1.376 0 -28.2069)" gradientUnits="userSpaceOnUse">
				<stop  offset="0.0428" style="stop-color:#A7DFF8"/>
				<stop  offset="0.6495" style="stop-color:#75D0F6"/>
				<stop  offset="1" style="stop-color:#26A7DF"/>
			</radialGradient>
			<path id="XMLID_1763_" fill="url(#XMLID_9_)" d="M37.628,71.268c-0.108-0.189-0.378-0.189-0.485,0
				c-0.904,1.569-3.815,7.13,0.242,7.13S38.531,72.837,37.628,71.268z"/>
			<path id="XMLID_1762_" fill="#F1F1F2" d="M35.66,76.929c0.009-0.492,0.598-0.735,0.918-0.321c0.09,0.117,0.134,0.276,0.161,0.427
				c0.039,0.207,0.06,0.423,0.013,0.605c-0.138,0.532-0.567,0.354-0.861-0.048C35.753,77.402,35.655,77.157,35.66,76.929z"/>
		</g>
	</g>
	<g id="XMLID_1753_">
		<g id="XMLID_1758_">
			
				<radialGradient id="XMLID_10_" cx="105.5215" cy="43.354" r="6.7819" gradientTransform="matrix(0.845 0 0 1 -29.0872 0)" gradientUnits="userSpaceOnUse">
				<stop  offset="0" style="stop-color:#404041"/>
				<stop  offset="1" style="stop-color:#231F20"/>
			</radialGradient>
			<rect id="XMLID_1759_" x="56.43" y="42.678" fill="url(#XMLID_10_)" width="7.524" height="1.272"/>
		</g>
		<g id="XMLID_1756_">
			
				<radialGradient id="XMLID_11_" cx="114.4268" cy="53.5078" r="6.785" gradientTransform="matrix(0.845 0 0 1 -29.0872 0)" gradientUnits="userSpaceOnUse">
				<stop  offset="0" style="stop-color:#404041"/>
				<stop  offset="1" style="stop-color:#231F20"/>
			</radialGradient>
			<rect id="XMLID_1757_" x="63.954" y="52.833" fill="url(#XMLID_11_)" width="7.526" height="1.272"/>
		</g>
		<g id="XMLID_1754_">
			
				<radialGradient id="XMLID_12_" cx="125.2314" cy="43.354" r="6.7847" gradientTransform="matrix(0.845 0 0 1 -29.0872 0)" gradientUnits="userSpaceOnUse">
				<stop  offset="0" style="stop-color:#404041"/>
				<stop  offset="1" style="stop-color:#231F20"/>
			</radialGradient>
			<rect id="XMLID_1755_" x="73.084" y="42.678" fill="url(#XMLID_12_)" width="7.526" height="1.272"/>
		</g>
	</g>
	<g id="XMLID_1748_">
		<g id="XMLID_1750_">
			<radialGradient id="XMLID_13_" cx="16.5762" cy="29.627" r="4.8626" gradientUnits="userSpaceOnUse">
				<stop  offset="0" style="stop-color:#404041"/>
				<stop  offset="1" style="stop-color:#231F20"/>
			</radialGradient>
			<rect id="XMLID_1752_" x="13.48" y="29.143" fill="url(#XMLID_13_)" width="6.384" height="0.912"/>
			<radialGradient id="XMLID_14_" cx="34.8223" cy="29.627" r="4.8612" gradientUnits="userSpaceOnUse">
				<stop  offset="0" style="stop-color:#404041"/>
				<stop  offset="1" style="stop-color:#231F20"/>
			</radialGradient>
			<rect id="XMLID_1751_" x="31.726" y="29.143" fill="url(#XMLID_14_)" width="6.384" height="0.912"/>
		</g>
		<radialGradient id="XMLID_15_" cx="25.6709" cy="36.2437" r="6.8525" gradientUnits="userSpaceOnUse">
			<stop  offset="0.2927" style="stop-color:#404041"/>
			<stop  offset="1" style="stop-color:#231F20"/>
		</radialGradient>
		<path id="XMLID_1749_" fill="url(#XMLID_15_)" d="M25.795,38.179c2.28,0,4.129-1.848,4.129-4.128h-8.257
			C21.667,36.331,23.516,38.179,25.795,38.179z"/>
	</g>
</g>
</svg>
